<svg width="60" height="60" fill="none" xmlns="http://www.w3.org/2000/svg"><g clip-path="url(#clip0_831_530)" fill="#E03B24"><path d="M9.97 53.312a1.18 1.18 0 00-.829-.343c-.308 0-.61.125-.828.343a1.18 1.18 0 00-.344.829c0 .308.126.61.344.828.218.218.52.344.828.344.308 0 .61-.126.829-.344a1.18 1.18 0 00.343-.828c0-.308-.125-.61-.343-.829zm45.052-31.874a1.178 1.178 0 00-.828-.343c-.308 0-.61.125-.829.343a1.18 1.18 0 00-.343.829c0 .308.125.61.343.828.218.218.52.344.829.344a1.178 1.178 0 001.173-1.172c0-.309-.126-.61-.345-.829z"/><path d="M59.657.343a1.173 1.173 0 00-.83-.343L30 .002c-.647 0-1.172.524-1.172 1.171v3.352L17.72 7.5c-.625.168-.996.81-.828 1.435l5.757 21.486-4.98 4.98a3.514 3.514 0 00-2.903-1.534H3.516a3.52 3.52 0 00-3.515 3.515v19.101A3.52 3.52 0 003.517 60h11.25a3.521 3.521 0 003.411-2.67l1.394 1.216A5.904 5.904 0 0023.452 60h35.376c.647 0 1.172-.525 1.172-1.172V1.172c0-.31-.124-.609-.343-.829zM15.938 56.485c0 .645-.526 1.171-1.172 1.171H3.516a1.173 1.173 0 01-1.171-1.172v-19.1c0-.647.525-1.172 1.172-1.172H7.97V49.71a1.172 1.172 0 002.343 0v-13.5h4.453c.646 0 1.172.526 1.172 1.172v19.101zm3.52-47.023l9.37-2.511v4.342l-.785.21a1.171 1.171 0 00-.829 1.436 3.159 3.159 0 01-2.23 3.864 1.172 1.172 0 00-.829 1.438l4.568 16.915h-2.352l-1.212-4.742a1.168 1.168 0 00-.196-.411L19.459 9.462zm9.37 7.206v9.888l-2.137-7.914a5.49 5.49 0 002.137-1.974zm16.836 40.988H23.452a3.56 3.56 0 01-2.34-.877l-2.83-2.468V38.103l5.116-5.116.928 3.63c.133.52.6.882 1.135.882l23.04.002a1.641 1.641 0 010 3.28H36.695a1.172 1.172 0 000 2.345H52.17a1.641 1.641 0 010 3.28H36.695a1.172 1.172 0 000 2.345h12.966a1.641 1.641 0 010 3.28H36.695a1.172 1.172 0 000 2.345h8.969a1.641 1.641 0 010 3.28zm11.992 0h-8.363a3.958 3.958 0 000-3.281h.368a3.989 3.989 0 003.985-3.984c0-.641-.153-1.246-.423-1.783a3.99 3.99 0 002.93-3.842 3.97 3.97 0 00-.786-2.374V27.54a1.172 1.172 0 00-2.344 0v13.335a3.982 3.982 0 00-.855-.093h-.038a3.96 3.96 0 00.355-1.64 3.989 3.989 0 00-3.984-3.985h-1.884A5.616 5.616 0 0050.022 30a5.615 5.615 0 00-5.608-5.608A5.615 5.615 0 0038.806 30a5.616 5.616 0 003.405 5.157h-6.406V12.875a5.516 5.516 0 004.201-4.202h8.815a5.516 5.516 0 004.202 4.202v3.643a1.172 1.172 0 002.343 0v-4.69c0-.647-.524-1.172-1.172-1.172a3.159 3.159 0 01-3.155-3.155c0-.647-.525-1.172-1.172-1.172H38.96c-.647 0-1.172.525-1.172 1.172a3.159 3.159 0 01-3.155 3.155c-.647 0-1.172.525-1.172 1.172v23.329h-2.289V2.345l26.484-.001v55.312zM44.414 33.265A3.268 3.268 0 0141.15 30c0-1.8 1.464-3.265 3.264-3.265 1.8 0 3.264 1.465 3.264 3.265s-1.464 3.265-3.264 3.265z"/></g><defs><clipPath id="clip0_831_530"><path fill="#fff" d="M0 0h60v60H0z"/></clipPath></defs></svg>