<svg width="63" height="63" fill="none" xmlns="http://www.w3.org/2000/svg"><path d="M59.85 24.476V8.4c0-.58-.47-1.05-1.05-1.05h-9.502C37.133-2.486 19.3-.598 9.465 11.566a28.322 28.322 0 00-5.791 12.471A9.431 9.431 0 000 31.5v4.2a9.463 9.463 0 008.534 9.403A4.193 4.193 0 0016.8 44.1v-21a4.193 4.193 0 00-8.266-1.003 9.394 9.394 0 00-2.407.569C9.825 8.669 24.168.32 38.164 4.019a26.214 26.214 0 017.536 3.33H31.5c-.58 0-1.05.47-1.05 1.05v16.8c0 .58.47 1.05 1.05 1.05h5.775l2.835 3.78a1.05 1.05 0 001.68 0l2.835-3.78H46.2V44.1a4.193 4.193 0 008.266 1.004 9.41 9.41 0 002.234-.505v2.651a9.462 9.462 0 01-9.45 9.45H42v-1.05c0-.58-.47-1.05-1.05-1.05h-4.601a4.164 4.164 0 00-2.749-1.05h-4.2a4.2 4.2 0 100 8.4h4.2a4.164 4.164 0 002.749-1.05h4.601c.58 0 1.05-.47 1.05-1.05V58.8h5.25c6.376-.007 11.542-5.174 11.55-11.55v-3.698A9.45 9.45 0 0063 35.7v-4.2a9.392 9.392 0 00-3.15-7.023zM10.5 23.1a2.1 2.1 0 114.2 0v21a2.1 2.1 0 11-4.2 0v-21zm-2.1 1.125v18.751A7.362 7.362 0 012.1 35.7v-4.2a7.362 7.362 0 016.3-7.275zM33.6 59.85h-4.2a2.1 2.1 0 110-4.2h4.2a2.1 2.1 0 110 4.2zm6.3-1.05h-2.25a3.772 3.772 0 000-2.1h2.25v2.1zm12.6-14.7a2.1 2.1 0 11-4.2 0V26.25h4.2V44.1zm-8.4-19.95c-.33 0-.642.155-.84.42l-2.31 3.08-2.31-3.08a1.05 1.05 0 00-.84-.42h-5.25V9.45h25.2v14.7H44.1zM60.9 35.7a7.35 7.35 0 01-6.3 7.265V26.25h4.088A7.311 7.311 0 0160.9 31.5v4.2z" fill="#E03B24"/><path d="M39.804 11.55H37.79v2.1h2.014v-2.1zm15.846 0H42v2.1h13.65v-2.1zm0 4.2h-21v2.1h21v-2.1zm0 4.2h-21v2.1h21v-2.1z" fill="#E03B24"/></svg>