<svg width="61" height="61" fill="none" xmlns="http://www.w3.org/2000/svg"><g clip-path="url(#clip0_831_465)" fill="#E03B24"><path d="M45.127 26.218a1.03 1.03 0 001.031-1.031V10.635a1.03 1.03 0 00-.303-.73l-9.611-9.6a1.031 1.031 0 00-.729-.302H1.033A1.03 1.03 0 00.002 1.034v58.934c0 .57.462 1.032 1.031 1.032h44.094c.57 0 1.031-.462 1.031-1.032V31.894a1.031 1.031 0 00-2.063 0v27.043H2.065V2.066h33.023l9.007 8.997v14.124c0 .57.462 1.031 1.032 1.031z"/><path d="M45.851 9.908L36.245.302a1.032 1.032 0 00-1.76.73v9.606c0 .57.46 1.03 1.03 1.03h9.607a1.031 1.031 0 00.73-1.76zm-9.304-.302V3.521l6.085 6.085h-6.085zM15.244 6.697h-8.68a1.031 1.031 0 000 2.063h8.68a1.031 1.031 0 000-2.063zm25.565 42.732h-9.441a1.031 1.031 0 000 2.062h9.44a1.031 1.031 0 000-2.062zm0 4.251h-6.24a1.031 1.031 0 000 2.063h6.24a1.031 1.031 0 000-2.063zM30.253 17.484H15.885a1.031 1.031 0 000 2.063h14.368a1.031 1.031 0 000-2.063zm9.117 5.278H6.768a1.031 1.031 0 000 2.062h32.604a1.031 1.031 0 000-2.063zm0 4.338H6.768a1.031 1.031 0 000 2.062h32.604a1.031 1.031 0 000-2.063zm-7.735 4.338H6.767a1.031 1.031 0 000 2.062h24.868a1.031 1.031 0 000-2.062zm1.385 4.339H6.767a1.031 1.031 0 000 2.062h26.254a1.031 1.031 0 000-2.062zm-2.767 4.338H6.767a1.031 1.031 0 000 2.063h23.486a1.031 1.031 0 000-2.063zm-10.357 4.339H6.767a1.031 1.031 0 000 2.063h13.13a1.031 1.031 0 000-2.063zm-.533-33.359H6.564a1.031 1.031 0 000 2.062h12.799a1.031 1.031 0 000-2.063z"/><path d="M33.136 42.139l-1.672-1.672a1.032 1.032 0 00-1.23-.172l-3.257 1.81c-.233.13-.407.345-.485.601l-1.364 4.482a1.031 1.031 0 001.287 1.287l4.482-1.364c.256-.078.471-.251.601-.485l1.81-3.257a1.032 1.032 0 00-.172-1.23zm-3.238 3.12l-2.234.68.68-2.234 2.212-1.23.572.572-1.23 2.212z"/><path d="M60.674 15.511a1 1 0 00-.041-.043l-2.497-2.497a1.281 1.281 0 00-1.776-.014L44.412 24.444l-11.07 10.65c-.029.03-.057.06-.083.092l-3.9 4.779a1.031 1.031 0 00.07 1.381l2.828 2.829a1.03 1.03 0 001.382.07l4.779-3.9c.032-.027.062-.055.09-.084l7.362-7.652 14.777-15.365.028-.03a1.282 1.282 0 00-.001-1.703zM44.384 31.18l-7.319 7.606-4.008 3.271-1.51-1.51 3.27-4.009L45.843 25.93 57.23 14.982l1.392 1.392L44.384 31.18z"/><path d="M51.99 24.787l-3.173-3.173a1.031 1.031 0 00-1.458 1.458l3.173 3.173a1.028 1.028 0 001.459 0 1.031 1.031 0 000-1.458z"/></g><defs><clipPath id="clip0_831_465"><path fill="#fff" d="M0 0h61v61H0z"/></clipPath></defs></svg>