<svg width="242" height="30" fill="none" xmlns="http://www.w3.org/2000/svg"><path d="M9.05 27.48c1.2 0 2.534-.173 4-.52l.48 1.8c-1.706.453-3.252.68-4.64.68-1.386 0-2.746-.213-4.08-.64-2.772-.907-4.16-3.24-4.16-7v-5.12c0-1.893.374-3.48 1.12-4.76C3.05 9.707 5.159 8.6 8.09 8.6c1.76 0 3.547.427 5.36 1.28l-.64 1.64c-1.52-.587-2.84-.88-3.96-.88-1.092 0-2.066.133-2.92.4-.852.267-1.572.867-2.16 1.8-.586.933-.88 2.133-.88 3.6v5.8c0 3.493 2.054 5.24 6.16 5.24z" fill="url(#paint0_linear_847_2)"/><path d="M27.163 10.32c1.36-1.147 3.267-1.72 5.72-1.72 1.387 0 2.574.253 3.56.76 2.267 1.04 3.4 2.973 3.4 5.8V29h-2.2V15.28c0-1.387-.373-2.467-1.12-3.24-.906-.933-2.266-1.4-4.08-1.4-1.786 0-3.493.453-5.12 1.36v17h-2.24V8.96h2.24l-.16 1.36z" fill="url(#paint1_linear_847_2)"/><path d="M57.982 29h-3.08l-6.12-20.04h2.36l5.32 17.72 5.36-17.72h2.36L57.982 29z" fill="url(#paint2_linear_847_2)"/><path d="M79.728 27.52c1.84 0 3.787-.547 5.84-1.64l.88 1.72c-2.053 1.253-4.2 1.88-6.44 1.88-4.64 0-6.96-1.947-6.96-5.84v-8.2c0-2.16.667-3.84 2-5.04 1.36-1.2 3.147-1.8 5.36-1.8 2.214 0 3.934.6 5.16 1.8 1.254 1.173 1.88 2.813 1.88 4.92v5.2l-12.16.68v2.44c0 1.44.52 2.48 1.56 3.12.8.507 1.76.76 2.88.76zm5.48-9v-3.48c0-1.147-.306-2.08-.92-2.8-.613-.747-1.253-1.213-1.92-1.4a6.532 6.532 0 00-2-.32c-1.466 0-2.68.4-3.64 1.2-.96.8-1.44 2.053-1.44 3.76V19l9.92-.48z" fill="url(#paint3_linear_847_2)"/><path d="M108.832 11a12.05 12.05 0 00-3.08-.4c-1.04 0-1.987.24-2.84.72-.827.453-1.24 1.12-1.24 2V29h-2.24V8.96h2.24l-.12 1.4c1.253-1.147 2.907-1.72 4.96-1.72.907 0 1.88.107 2.92.32l-.6 2.04z" fill="url(#paint4_linear_847_2)"/><path d="M123.058 1.96c0 .347-.134.653-.4.92a1.31 1.31 0 01-.96.4c-.347 0-.654-.133-.92-.4-.267-.293-.4-.613-.4-.96s.133-.653.4-.92c.266-.267.586-.4.96-.4.373 0 .68.133.92.4.266.267.4.587.4.96zm-.24 27.04h-2.24V8.96h2.24V29z" fill="url(#paint5_linear_847_2)"/><path d="M139.602 29h-2.24V7.04c0-1.333.227-2.48.68-3.44.453-.96 1.027-1.64 1.72-2.04 1.147-.667 2.32-1 3.52-1 .48 0 .947.053 1.4.16l-.36 1.96a6.582 6.582 0 00-1-.08c-2.48 0-3.72 1.48-3.72 4.44v1.92h4.56l-.96 2.12h-3.6V29z" fill="url(#paint6_linear_847_2)"/><path d="M152.774 28.6c-.24.267-.547.4-.92.4-.374 0-.694-.133-.96-.4a1.335 1.335 0 01-.36-.92c0-.347.12-.653.36-.92.266-.267.586-.4.96-.4.373 0 .68.133.92.4.266.267.4.573.4.92 0 .347-.134.653-.4.92z" fill="url(#paint7_linear_847_2)"/><path d="M172.738 27.48c1.2 0 2.534-.173 4-.52l.48 1.8c-1.706.453-3.253.68-4.64.68-1.386 0-2.746-.213-4.08-.64-2.773-.907-4.16-3.24-4.16-7v-5.12c0-1.893.374-3.48 1.12-4.76 1.28-2.213 3.387-3.32 6.32-3.32 1.76 0 3.547.427 5.36 1.28l-.64 1.64c-1.52-.587-2.84-.88-3.96-.88-1.093 0-2.066.133-2.92.4-.853.267-1.573.867-2.16 1.8-.586.933-.88 2.133-.88 3.6v5.8c0 3.493 2.054 5.24 6.16 5.24z" fill="url(#paint8_linear_847_2)"/><path d="M204.251 16.36v5.28c0 2.24-.613 4.093-1.84 5.56-1.227 1.467-3.08 2.2-5.56 2.2-2.48 0-4.36-.733-5.64-2.2-1.253-1.493-1.88-3.347-1.88-5.56v-5.28c0-2.533.64-4.467 1.92-5.8 1.307-1.36 3.147-2.04 5.52-2.04 2.373 0 4.213.707 5.52 2.12 1.307 1.387 1.96 3.293 1.96 5.72zm-2.24 5.68v-5.68c0-3.867-1.72-5.8-5.16-5.8-3.52 0-5.28 1.933-5.28 5.8v5.68c0 1.6.467 2.893 1.4 3.88.96.987 2.253 1.48 3.88 1.48 1.653 0 2.92-.48 3.8-1.44.907-.987 1.36-2.293 1.36-3.92z" fill="url(#paint9_linear_847_2)"/><path d="M228.986 10.56c2.267-1.28 4.413-1.92 6.44-1.92 1.92 0 3.44.613 4.56 1.84 1.12 1.227 1.68 2.787 1.68 4.68V29h-2.2V15.28c0-1.2-.253-2.173-.76-2.92-.507-.747-1.12-1.213-1.84-1.4-.72-.187-1.307-.28-1.76-.28-.427 0-.92.027-1.48.08-.533.027-1.253.213-2.16.56l-1.48.72c.453.907.68 1.947.68 3.12V29h-2.2V15.28c0-1.387-.333-2.467-1-3.24-.8-.907-2.027-1.36-3.68-1.36-1.627 0-3.24.44-4.84 1.32v17h-2.24V8.96h2.24l-.2 1.28c1.84-1.04 3.693-1.56 5.56-1.56 1.893 0 3.453.627 4.68 1.88z" fill="url(#paint10_linear_847_2)"/><defs><linearGradient id="paint0_linear_847_2" x1="243" y1="2" x2="-48.5" y2="2" gradientUnits="userSpaceOnUse"><stop stop-color="#fff"/><stop offset="1" stop-color="#fff" stop-opacity="0"/></linearGradient><linearGradient id="paint1_linear_847_2" x1="243" y1="2" x2="-48.5" y2="2" gradientUnits="userSpaceOnUse"><stop stop-color="#fff"/><stop offset="1" stop-color="#fff" stop-opacity="0"/></linearGradient><linearGradient id="paint2_linear_847_2" x1="243" y1="2" x2="-48.5" y2="2" gradientUnits="userSpaceOnUse"><stop stop-color="#fff"/><stop offset="1" stop-color="#fff" stop-opacity="0"/></linearGradient><linearGradient id="paint3_linear_847_2" x1="243" y1="2" x2="-48.5" y2="2" gradientUnits="userSpaceOnUse"><stop stop-color="#fff"/><stop offset="1" stop-color="#fff" stop-opacity="0"/></linearGradient><linearGradient id="paint4_linear_847_2" x1="243" y1="2" x2="-48.5" y2="2" gradientUnits="userSpaceOnUse"><stop stop-color="#fff"/><stop offset="1" stop-color="#fff" stop-opacity="0"/></linearGradient><linearGradient id="paint5_linear_847_2" x1="243" y1="2" x2="-48.5" y2="2" gradientUnits="userSpaceOnUse"><stop stop-color="#fff"/><stop offset="1" stop-color="#fff" stop-opacity="0"/></linearGradient><linearGradient id="paint6_linear_847_2" x1="243" y1="2" x2="-48.5" y2="2" gradientUnits="userSpaceOnUse"><stop stop-color="#fff"/><stop offset="1" stop-color="#fff" stop-opacity="0"/></linearGradient><linearGradient id="paint7_linear_847_2" x1="243" y1="2" x2="-48.5" y2="2" gradientUnits="userSpaceOnUse"><stop stop-color="#fff"/><stop offset="1" stop-color="#fff" stop-opacity="0"/></linearGradient><linearGradient id="paint8_linear_847_2" x1="243" y1="2" x2="-48.5" y2="2" gradientUnits="userSpaceOnUse"><stop stop-color="#fff"/><stop offset="1" stop-color="#fff" stop-opacity="0"/></linearGradient><linearGradient id="paint9_linear_847_2" x1="243" y1="2" x2="-48.5" y2="2" gradientUnits="userSpaceOnUse"><stop stop-color="#fff"/><stop offset="1" stop-color="#fff" stop-opacity="0"/></linearGradient><linearGradient id="paint10_linear_847_2" x1="243" y1="2" x2="-48.5" y2="2" gradientUnits="userSpaceOnUse"><stop stop-color="#fff"/><stop offset="1" stop-color="#fff" stop-opacity="0"/></linearGradient></defs></svg>