<svg width="40" height="40" fill="none" xmlns="http://www.w3.org/2000/svg"><circle cx="20" cy="20" r="20" fill="#F59124"/><path d="M26.58 14.158C25.013 12.719 23.116 12 20.763 12c-2.42 0-4.512.785-6.212 2.42-1.7 1.634-2.55 3.66-2.55 6.08 0 2.354.785 4.315 2.42 6.015 1.634 1.7 3.792 2.485 6.603 2.485 1.635 0 3.27-.327 4.904-1.046.523-.196.785-.85.588-1.373-.196-.523-.85-.785-1.373-.589-1.373.589-2.746.916-4.053.916-2.093 0-3.727-.654-4.904-1.962-1.177-1.308-1.766-2.811-1.766-4.511 0-1.896.654-3.466 1.831-4.708 1.242-1.242 2.746-1.896 4.577-1.896 1.634 0 3.073.523 4.25 1.569 1.177 1.046 1.7 2.354 1.7 3.923 0 1.046-.262 1.962-.785 2.68-.523.72-1.046 1.047-1.634 1.047-.327 0-.458-.13-.458-.523 0-.262 0-.588.065-.916l.654-5.296h-2.223l-.13.523c-.59-.457-1.177-.719-1.831-.719-1.046 0-1.962.458-2.746 1.308-.785.85-1.112 1.962-1.112 3.27 0 1.307.327 2.353 1.046 3.203.654.785 1.504 1.177 2.42 1.177.85 0 1.569-.327 2.157-1.046.458.654 1.111 1.046 2.027 1.046 1.308 0 2.42-.589 3.4-1.7.98-1.112 1.438-2.485 1.438-4.12-.196-1.96-.98-3.726-2.484-5.1zm-5.165 7.977c-.392.523-.85.784-1.438.784-.392 0-.654-.196-.915-.588-.262-.392-.327-.85-.327-1.439 0-.719.13-1.307.457-1.7.327-.457.72-.654 1.177-.654.393 0 .785.131 1.112.523.327.328.457.785.457 1.308.066.654-.13 1.242-.523 1.766z" fill="#fff"/></svg>