<svg width="40" height="40" fill="none" xmlns="http://www.w3.org/2000/svg"><circle cx="20" cy="20" r="20" fill="#E03B24"/><path fill-rule="evenodd" clip-rule="evenodd" d="M26.984 11H13.873c-1.04 0-1.873.843-1.873 1.873v13.111c0 1.03.834 1.873 1.873 1.873h3.746l2.81 2.81 2.81-2.81h3.745c1.03 0 1.873-.843 1.873-1.873V12.873c0-1.03-.843-1.873-1.873-1.873zm-7.492 12.175h1.873v1.873h-1.873v-1.873zm2.81-5.62c0-1.03-.843-1.873-1.873-1.873s-1.873.843-1.873 1.873h-1.873a3.745 3.745 0 013.746-3.745 3.745 3.745 0 013.746 3.745c0 1.202-.74 1.849-1.46 2.478-.684.597-1.35 1.18-1.35 2.205h-1.873c0-1.706.882-2.382 1.658-2.976.609-.467 1.152-.883 1.152-1.707z" fill="#fff"/></svg>