<svg width="83" height="83" fill="none" xmlns="http://www.w3.org/2000/svg"><path d="M50.367 42.177l-6.192-2.389-3.555-3.554a1.212 1.212 0 00-.839-.355v-2.905a13.107 13.107 0 003.35-6.614.026.026 0 01.004-.003c.31.018.622-.005.931-.068 1.67-.342 2.884-1.893 2.884-3.688v-.931a3.766 3.766 0 00-1.135-2.7c1.14-6.139.22-11.14-2.673-14.48-2.79-3.221-7.286-4.76-13.005-4.451-5.326.288-8.747 2.754-9.797 3.624-1.477.192-5.69 1.257-5.69 7.147 0 3.262.53 5.975.902 7.479-1.253.586-2.096 1.894-2.096 3.395v.917c0 1.795 1.212 3.346 2.883 3.688.309.063.622.086.931.067a.056.056 0 01.004.004 13.106 13.106 0 003.35 6.614v2.905a1.212 1.212 0 00-.839.355l-3.554 3.554-6.966 2.687a8.382 8.382 0 00-5.36 8.158l.99 24.702a1.216 1.216 0 002.43-.097l-.99-24.702a5.946 5.946 0 01.234-1.906l3.95 3.95a5.913 5.913 0 011.742 4.209v18.498a1.216 1.216 0 002.432 0V56.789c0-2.24-.872-4.345-2.455-5.929L7.78 46.404a5.942 5.942 0 012.36-1.66l6.499-2.507L21.6 49.68a3.592 3.592 0 003.004 1.606 3.59 3.59 0 001.865-.526l-1.066 24.475a1.216 1.216 0 102.43.105l.988-22.693h2.763l.988 22.693a1.216 1.216 0 002.43-.105L33.936 50.76a3.583 3.583 0 002.224.508 3.592 3.592 0 002.643-1.587l4.962-7.443 5.726 2.21a1.215 1.215 0 10.875-2.27zM19.662 25.905c-.22-1.196-1.328-2.064-2.521-1.977-.103.007-.208 0-.314-.021-.536-.11-.94-.671-.94-1.306v-.917c0-.622.418-1.181.952-1.275.45-.079.88.086 1.152.442.227.295.528.506.874.61a1.733 1.733 0 001.49-.24 9.27 9.27 0 002.489-2.629 1.216 1.216 0 00-2.054-1.301 6.923 6.923 0 01-1.35 1.565 3.594 3.594 0 00-1.428-.77 29.23 29.23 0 01-.93-7.276c0-1.98.614-3.372 1.824-4.138a4.215 4.215 0 011.938-.62c.31 0 .613-.122.84-.335.03-.03 3.183-2.958 8.584-3.25 4.94-.268 8.757.983 11.035 3.614 2.309 2.666 3.07 6.762 2.22 11.887-.365-.017-.77.01-1.173.08l-1.219-2.926a1.216 1.216 0 00-1.43-.709c-.12.031-11.936 3.046-16.919-3.157a1.216 1.216 0 10-1.896 1.523c5.054 6.293 15.12 4.882 18.393 4.22l.947 2.275a2.038 2.038 0 002.355 1.208c.383-.09.8-.107.982-.07.544.108.955.648.955 1.258v.93c0 .636-.404 1.197-.94 1.307a1.154 1.154 0 01-.314.021c-1.193-.087-2.301.78-2.52 1.977a10.714 10.714 0 01-10.541 8.778 10.714 10.714 0 01-10.54-8.778zM25.43 48.51a1.17 1.17 0 01-.945.338 1.169 1.169 0 01-.861-.517l-4.999-7.498 2.075-2.075 7.724 6.758-2.994 2.994zm3.497 1.704l.08-1.843 1.195-1.195 1.196 1.195.08 1.843h-2.551zm1.275-6.373l-7.147-6.254v-2.585a13.115 13.115 0 007.147 2.113 13.11 13.11 0 007.147-2.113v2.585l-7.147 6.254zm6.58 4.49a1.17 1.17 0 01-.862.517 1.16 1.16 0 01-.945-.338l-2.994-2.994 7.724-6.758 2.075 2.075-4.999 7.498z" fill="url(#paint0_linear_808_3)"/><path d="M79.101 57.094a5.12 5.12 0 00-5.114-5.114h-7.88v-2.683a3.82 3.82 0 00-3.815-3.815h-7.797a3.82 3.82 0 00-3.815 3.815v2.683H42.8a5.12 5.12 0 00-5.115 5.114v3.61c0 1.33.448 2.608 1.3 3.79v13.524A4.988 4.988 0 0043.966 83H72.82a4.988 4.988 0 004.982-4.982V64.494c.851-1.182 1.3-2.46 1.3-3.79v-3.61zm-25.99-7.797c0-.763.621-1.383 1.384-1.383h7.797c.762 0 1.383.62 1.383 1.383v2.683H53.11v-2.683zM76.67 60.704c0 2.087-1.975 4.156-5.366 5.702v-.216c0-.671-.544-1.215-1.216-1.215h-5.197c-.672 0-1.216.544-1.216 1.216v3.898a3.82 3.82 0 003.815 3.815 3.82 3.82 0 003.814-3.815v-1.04c1.579-.632 2.942-1.367 4.066-2.183v11.152a2.553 2.553 0 01-2.55 2.55H43.967a2.553 2.553 0 01-2.55-2.55V66.866c1.124.816 2.486 1.551 4.065 2.183v1.04a3.82 3.82 0 003.815 3.815 3.82 3.82 0 003.715-2.953 40.715 40.715 0 006.72.333 1.216 1.216 0 10-.078-2.43 38.171 38.171 0 01-6.543-.342V66.19c0-.671-.544-1.215-1.215-1.215h-5.198c-.672 0-1.216.544-1.216 1.216v.215c-3.39-1.546-5.365-3.615-5.365-5.702v-3.61a2.686 2.686 0 012.682-2.683h31.188a2.686 2.686 0 012.683 2.683v3.61zm-7.797 6.702v2.683a1.384 1.384 0 01-2.766 0v-2.683h2.766zm-20.96 2.683v-2.683h2.767v2.683a1.384 1.384 0 01-2.766 0z" fill="url(#paint1_linear_808_3)"/><defs><linearGradient id="paint0_linear_808_3" x1="27.522" y1="0" x2="27.522" y2="76.502" gradientUnits="userSpaceOnUse"><stop stop-color="#FE4746"/><stop offset="1" stop-color="#D23614"/></linearGradient><linearGradient id="paint1_linear_808_3" x1="58.393" y1="45.482" x2="58.393" y2="83" gradientUnits="userSpaceOnUse"><stop stop-color="#FE4746"/><stop offset="1" stop-color="#D23614"/></linearGradient></defs></svg>