<svg width="79" height="79" fill="none" xmlns="http://www.w3.org/2000/svg"><g clip-path="url(#clip0_808_25)"><path d="M54.11 76.68H10.202v-57.2a1.16 1.16 0 00-2.319 0v57.587c0 1.066.867 1.933 1.933 1.933H54.11a1.16 1.16 0 000-2.32z" fill="#000"/><path d="M54.11 76.68H10.202v-57.2a1.16 1.16 0 00-2.319 0v57.587c0 1.066.867 1.933 1.933 1.933H54.11a1.16 1.16 0 000-2.32z" fill="url(#paint0_linear_808_25)"/><path d="M70.789 10.485L60.933.35a1.16 1.16 0 00-.831-.35H9.816a1.935 1.935 0 00-1.933 1.933v9.043a1.16 1.16 0 102.32 0V2.32h49.409l9.186 9.445v64.917h-6.572a1.16 1.16 0 000 2.319h6.958a1.935 1.935 0 001.933-1.932V11.293a1.16 1.16 0 00-.328-.808z" fill="#000"/><path d="M70.789 10.485L60.933.35a1.16 1.16 0 00-.831-.35H9.816a1.935 1.935 0 00-1.933 1.933v9.043a1.16 1.16 0 102.32 0V2.32h49.409l9.186 9.445v64.917h-6.572a1.16 1.16 0 000 2.319h6.958a1.935 1.935 0 001.933-1.932V11.293a1.16 1.16 0 00-.328-.808z" fill="url(#paint1_linear_808_25)"/><path d="M70.788 10.485L60.933.35a1.16 1.16 0 00-1.991.809v10.133c0 .64.52 1.16 1.16 1.16h9.855a1.16 1.16 0 00.832-1.968zm-9.527-.351v-6.12l5.951 6.12h-5.95z" fill="#000"/><path d="M70.788 10.485L60.933.35a1.16 1.16 0 00-1.991.809v10.133c0 .64.52 1.16 1.16 1.16h9.855a1.16 1.16 0 00.832-1.968zm-9.527-.351v-6.12l5.951 6.12h-5.95z" fill="url(#paint2_linear_808_25)"/><path d="M44.867 6.156H16.929a1.935 1.935 0 00-1.933 1.933v6.408c0 1.066.867 1.933 1.932 1.933h27.939a1.935 1.935 0 001.932-1.933V8.09a1.935 1.935 0 00-1.932-1.933zm-.387 7.955H17.315V8.475H44.48v5.636z" fill="#000"/><path d="M44.867 6.156H16.929a1.935 1.935 0 00-1.933 1.933v6.408c0 1.066.867 1.933 1.932 1.933h27.939a1.935 1.935 0 001.932-1.933V8.09a1.935 1.935 0 00-1.932-1.933zm-.387 7.955H17.315V8.475H44.48v5.636z" fill="url(#paint3_linear_808_25)"/><path d="M26.577 22.498a1.16 1.16 0 00-1.625.222l-5.123 6.74-1.538-1.346a1.16 1.16 0 10-1.527 1.746l2.473 2.164a1.16 1.16 0 001.687-.171l5.875-7.73a1.16 1.16 0 00-.222-1.625z" fill="#000"/><path d="M26.577 22.498a1.16 1.16 0 00-1.625.222l-5.123 6.74-1.538-1.346a1.16 1.16 0 10-1.527 1.746l2.473 2.164a1.16 1.16 0 001.687-.171l5.875-7.73a1.16 1.16 0 00-.222-1.625z" fill="url(#paint4_linear_808_25)"/><path d="M61.473 22.262H32.27a1.16 1.16 0 100 2.319h29.204a1.16 1.16 0 000-2.32z" fill="#000"/><path d="M61.473 22.262H32.27a1.16 1.16 0 100 2.319h29.204a1.16 1.16 0 000-2.32z" fill="url(#paint5_linear_808_25)"/><path d="M51.23 26.127H32.269a1.16 1.16 0 100 2.319h18.96a1.16 1.16 0 100-2.32z" fill="#000"/><path d="M51.23 26.127H32.269a1.16 1.16 0 100 2.319h18.96a1.16 1.16 0 100-2.32z" fill="url(#paint6_linear_808_25)"/><path d="M55.559 29.992h-23.29a1.16 1.16 0 100 2.319h23.29a1.16 1.16 0 000-2.32z" fill="#000"/><path d="M55.559 29.992h-23.29a1.16 1.16 0 100 2.319h23.29a1.16 1.16 0 000-2.32z" fill="url(#paint7_linear_808_25)"/><path d="M26.577 38.268a1.16 1.16 0 00-1.625.221L19.83 45.23l-1.538-1.346a1.16 1.16 0 00-1.527 1.745l2.473 2.165a1.16 1.16 0 001.687-.171l5.875-7.73a1.16 1.16 0 00-.222-1.625z" fill="#000"/><path d="M26.577 38.268a1.16 1.16 0 00-1.625.221L19.83 45.23l-1.538-1.346a1.16 1.16 0 00-1.527 1.745l2.473 2.165a1.16 1.16 0 001.687-.171l5.875-7.73a1.16 1.16 0 00-.222-1.625z" fill="url(#paint8_linear_808_25)"/><path d="M61.473 38.031H32.27a1.16 1.16 0 000 2.32h29.204a1.16 1.16 0 100-2.32z" fill="#000"/><path d="M61.473 38.031H32.27a1.16 1.16 0 000 2.32h29.204a1.16 1.16 0 100-2.32z" fill="url(#paint9_linear_808_25)"/><path d="M51.23 41.896H32.269a1.16 1.16 0 000 2.32h18.96a1.16 1.16 0 100-2.32z" fill="#000"/><path d="M51.23 41.896H32.269a1.16 1.16 0 000 2.32h18.96a1.16 1.16 0 100-2.32z" fill="url(#paint10_linear_808_25)"/><path d="M55.559 45.761h-23.29a1.16 1.16 0 000 2.32h23.29a1.16 1.16 0 100-2.32z" fill="#000"/><path d="M55.559 45.761h-23.29a1.16 1.16 0 000 2.32h23.29a1.16 1.16 0 100-2.32z" fill="url(#paint11_linear_808_25)"/><path d="M61.473 53.801H32.27a1.16 1.16 0 000 2.32h29.204a1.16 1.16 0 000-2.32z" fill="#000"/><path d="M61.473 53.801H32.27a1.16 1.16 0 000 2.32h29.204a1.16 1.16 0 000-2.32z" fill="url(#paint12_linear_808_25)"/><path d="M51.23 57.666H32.269a1.16 1.16 0 000 2.32h18.96a1.16 1.16 0 000-2.32z" fill="#000"/><path d="M51.23 57.666H32.269a1.16 1.16 0 000 2.32h18.96a1.16 1.16 0 000-2.32z" fill="url(#paint13_linear_808_25)"/><path d="M55.559 61.531h-23.29a1.16 1.16 0 000 2.32h23.29a1.16 1.16 0 000-2.32z" fill="#000"/><path d="M55.559 61.531h-23.29a1.16 1.16 0 000 2.32h23.29a1.16 1.16 0 000-2.32z" fill="url(#paint14_linear_808_25)"/><path d="M24.484 53.801H18.3a1.935 1.935 0 00-1.933 1.933v6.183c0 1.066.867 1.933 1.933 1.933h6.184a1.935 1.935 0 001.932-1.932v-6.184a1.935 1.935 0 00-1.932-1.933zm-.386 7.73h-5.412v-5.41h5.412v5.41z" fill="#000"/><path d="M24.484 53.801H18.3a1.935 1.935 0 00-1.933 1.933v6.183c0 1.066.867 1.933 1.933 1.933h6.184a1.935 1.935 0 001.932-1.932v-6.184a1.935 1.935 0 00-1.932-1.933zm-.386 7.73h-5.412v-5.41h5.412v5.41z" fill="url(#paint15_linear_808_25)"/></g><defs><linearGradient id="paint0_linear_808_25" x1="31.576" y1="18.32" x2="31.576" y2="79" gradientUnits="userSpaceOnUse"><stop stop-color="#FE4746"/><stop offset="1" stop-color="#D23614"/></linearGradient><linearGradient id="paint1_linear_808_25" x1="39.5" y1="0" x2="39.5" y2="79" gradientUnits="userSpaceOnUse"><stop stop-color="#FE4746"/><stop offset="1" stop-color="#D23614"/></linearGradient><linearGradient id="paint2_linear_808_25" x1="65.029" y1="0" x2="65.029" y2="12.453" gradientUnits="userSpaceOnUse"><stop stop-color="#FE4746"/><stop offset="1" stop-color="#D23614"/></linearGradient><linearGradient id="paint3_linear_808_25" x1="30.898" y1="6.156" x2="30.898" y2="16.43" gradientUnits="userSpaceOnUse"><stop stop-color="#FE4746"/><stop offset="1" stop-color="#D23614"/></linearGradient><linearGradient id="paint4_linear_808_25" x1="21.701" y1="22.262" x2="21.701" y2="32.311" gradientUnits="userSpaceOnUse"><stop stop-color="#FE4746"/><stop offset="1" stop-color="#D23614"/></linearGradient><linearGradient id="paint5_linear_808_25" x1="46.871" y1="22.262" x2="46.871" y2="24.581" gradientUnits="userSpaceOnUse"><stop stop-color="#FE4746"/><stop offset="1" stop-color="#D23614"/></linearGradient><linearGradient id="paint6_linear_808_25" x1="41.749" y1="26.127" x2="41.749" y2="28.445" gradientUnits="userSpaceOnUse"><stop stop-color="#FE4746"/><stop offset="1" stop-color="#D23614"/></linearGradient><linearGradient id="paint7_linear_808_25" x1="43.914" y1="29.992" x2="43.914" y2="32.311" gradientUnits="userSpaceOnUse"><stop stop-color="#FE4746"/><stop offset="1" stop-color="#D23614"/></linearGradient><linearGradient id="paint8_linear_808_25" x1="21.701" y1="38.032" x2="21.701" y2="48.08" gradientUnits="userSpaceOnUse"><stop stop-color="#FE4746"/><stop offset="1" stop-color="#D23614"/></linearGradient><linearGradient id="paint9_linear_808_25" x1="46.871" y1="38.031" x2="46.871" y2="40.35" gradientUnits="userSpaceOnUse"><stop stop-color="#FE4746"/><stop offset="1" stop-color="#D23614"/></linearGradient><linearGradient id="paint10_linear_808_25" x1="41.749" y1="41.896" x2="41.749" y2="44.215" gradientUnits="userSpaceOnUse"><stop stop-color="#FE4746"/><stop offset="1" stop-color="#D23614"/></linearGradient><linearGradient id="paint11_linear_808_25" x1="43.914" y1="45.761" x2="43.914" y2="48.08" gradientUnits="userSpaceOnUse"><stop stop-color="#FE4746"/><stop offset="1" stop-color="#D23614"/></linearGradient><linearGradient id="paint12_linear_808_25" x1="46.871" y1="53.801" x2="46.871" y2="56.12" gradientUnits="userSpaceOnUse"><stop stop-color="#FE4746"/><stop offset="1" stop-color="#D23614"/></linearGradient><linearGradient id="paint13_linear_808_25" x1="41.749" y1="57.666" x2="41.749" y2="59.985" gradientUnits="userSpaceOnUse"><stop stop-color="#FE4746"/><stop offset="1" stop-color="#D23614"/></linearGradient><linearGradient id="paint14_linear_808_25" x1="43.914" y1="61.531" x2="43.914" y2="63.85" gradientUnits="userSpaceOnUse"><stop stop-color="#FE4746"/><stop offset="1" stop-color="#D23614"/></linearGradient><linearGradient id="paint15_linear_808_25" x1="21.392" y1="53.801" x2="21.392" y2="63.85" gradientUnits="userSpaceOnUse"><stop stop-color="#FE4746"/><stop offset="1" stop-color="#D23614"/></linearGradient><clipPath id="clip0_808_25"><path fill="#fff" d="M0 0h79v79H0z"/></clipPath></defs></svg>