<svg width="18" height="18" fill="none" xmlns="http://www.w3.org/2000/svg"><path fill-rule="evenodd" clip-rule="evenodd" d="M17 12.5c-1.25 0-2.45-.2-3.57-.57-.1-.03-.21-.05-.31-.05-.26 0-.51.1-.71.29l-2.2 2.2a15.074 15.074 0 01-6.59-6.58l2.2-2.21c.28-.27.36-.66.25-1.01A11.36 11.36 0 015.5 1c0-.55-.45-1-1-1H1C.45 0 0 .45 0 1c0 9.39 7.61 17 17 17 .55 0 1-.45 1-1v-3.5c0-.55-.45-1-1-1zM2.03 2h1.5c.07.88.22 1.75.46 2.59L2.79 5.8c-.41-1.21-.67-2.48-.76-3.8zM12.2 15.21c1.2.41 2.48.67 3.8.76v-1.51c-.88-.06-1.75-.21-2.6-.45l-1.2 1.2zM9 0v10l3-3h6V0H9zm2 5h5V2h-5v3z" fill="#E03B24"/></svg>