<svg width="18" height="18" viewBox="0 0 18 18" fill="none" xmlns="http://www.w3.org/2000/svg">
<path fill-rule="evenodd" clip-rule="evenodd" d="M17 12.5C15.75 12.5 14.55 12.3 13.43 11.93C13.33 11.9 13.22 11.88 13.12 11.88C12.86 11.88 12.61 11.98 12.41 12.17L10.21 14.37C7.38 12.93 5.06 10.62 3.62 7.79L5.82 5.58C6.1 5.31 6.18 4.92 6.07 4.57C5.7 3.45 5.5 2.25 5.5 1C5.5 0.45 5.05 0 4.5 0H1C0.45 0 0 0.45 0 1C0 10.39 7.61 18 17 18C17.55 18 18 17.55 18 17V13.5C18 12.95 17.55 12.5 17 12.5ZM2.03 2H3.53C3.6 2.88 3.75 3.75 3.99 4.59L2.79 5.8C2.38 4.59 2.12 3.32 2.03 2ZM12.2 15.21C13.4 15.62 14.68 15.88 16 15.97V14.46C15.12 14.4 14.25 14.25 13.4 14.01L12.2 15.21ZM9 0V10L12 7H18V0H9ZM11 5H16V2H11V5Z" fill="#E03B24"/>
</svg>
