<svg width="61" height="61" viewBox="0 0 61 61" fill="none" xmlns="http://www.w3.org/2000/svg">
<g clip-path="url(#clip0_831_465)">
<path d="M45.1267 26.218C45.6962 26.218 46.158 25.7562 46.158 25.1868V10.6353C46.158 10.3616 46.0492 10.0991 45.8554 9.90566L36.2438 0.304594C36.0505 0.111467 35.7883 0.00292969 35.515 0.00292969H1.03323C0.463742 0.00292969 0.00195312 0.464719 0.00195312 1.03421V59.9684C0.00195312 60.5379 0.463742 60.9997 1.03323 60.9997H45.1267C45.6962 60.9997 46.158 60.5379 46.158 59.9684V31.8945C46.158 31.325 45.6962 30.8632 45.1267 30.8632C44.5572 30.8632 44.0954 31.325 44.0954 31.8945V58.9374H2.06452V2.06573H35.0883L44.0953 11.0629V25.1866C44.0954 25.7563 44.5571 26.218 45.1267 26.218Z" fill="#E03B24"/>
<path d="M45.8511 9.9084L36.2447 0.301967C35.9496 0.00697516 35.5059 -0.0809506 35.1207 0.0784596C34.7354 0.238108 34.4841 0.614116 34.4841 1.03123V10.6377C34.4841 11.2071 34.9459 11.6689 35.5154 11.6689H45.1218C45.5388 11.6689 45.9149 11.4176 46.0745 11.0322C46.2341 10.6469 46.146 10.2034 45.8511 9.9084ZM36.5467 9.60637V3.52115L42.6319 9.60637H36.5467Z" fill="#E03B24"/>
<path d="M15.2444 6.69727H6.56424C5.99475 6.69727 5.53296 7.15905 5.53296 7.72855C5.53296 8.29804 5.99475 8.75983 6.56424 8.75983H15.2441C15.8137 8.75983 16.2755 8.29804 16.2755 7.72855C16.2755 7.15905 15.8138 6.69727 15.2444 6.69727Z" fill="#E03B24"/>
<path d="M40.8085 49.4287H31.3676C30.7981 49.4287 30.3363 49.8905 30.3363 50.46C30.3363 51.0295 30.7981 51.4913 31.3676 51.4913H40.8085C41.378 51.4913 41.8398 51.0295 41.8398 50.46C41.8398 49.8905 41.378 49.4287 40.8085 49.4287Z" fill="#E03B24"/>
<path d="M40.8085 53.6802H34.5696C34.0001 53.6802 33.5383 54.142 33.5383 54.7115C33.5383 55.281 34.0001 55.7427 34.5696 55.7427H40.8085C41.378 55.7427 41.8398 55.281 41.8398 54.7115C41.8398 54.142 41.378 53.6802 40.8085 53.6802Z" fill="#E03B24"/>
<path d="M30.253 17.4844H15.885C15.3155 17.4844 14.8538 17.9462 14.8538 18.5157C14.8538 19.0851 15.3155 19.5469 15.885 19.5469H30.253C30.8225 19.5469 31.2843 19.0851 31.2843 18.5157C31.2843 17.9462 30.8227 17.4844 30.253 17.4844Z" fill="#E03B24"/>
<path d="M39.3709 22.7615H6.76749C6.19799 22.7615 5.73621 23.2233 5.73621 23.7928C5.73621 24.3622 6.19799 24.824 6.76749 24.824H39.3709C39.9404 24.824 40.4022 24.3622 40.4022 23.7928C40.4022 23.2233 39.9404 22.7615 39.3709 22.7615Z" fill="#E03B24"/>
<path d="M39.3709 27.0991H6.76749C6.19799 27.0991 5.73621 27.5609 5.73621 28.1304C5.73621 28.6999 6.19799 29.1617 6.76749 29.1617H39.3709C39.9404 29.1617 40.4022 28.6999 40.4022 28.1304C40.4022 27.5609 39.9404 27.0991 39.3709 27.0991Z" fill="#E03B24"/>
<path d="M31.6346 31.4377H6.76749C6.19799 31.4377 5.73621 31.8995 5.73621 32.469C5.73621 33.0385 6.19799 33.5003 6.76749 33.5003H31.6348C32.2042 33.5003 32.666 33.0385 32.666 32.469C32.6659 31.8995 32.2043 31.4377 31.6346 31.4377Z" fill="#E03B24"/>
<path d="M33.0205 35.7766H6.76749C6.19799 35.7766 5.73621 36.2384 5.73621 36.8079C5.73621 37.3774 6.19799 37.8392 6.76749 37.8392H33.0206C33.5901 37.8392 34.0519 37.3774 34.0519 36.8079C34.0518 36.2384 33.5901 35.7766 33.0205 35.7766Z" fill="#E03B24"/>
<path d="M30.2531 40.1152H6.76749C6.19799 40.1152 5.73621 40.577 5.73621 41.1465C5.73621 41.716 6.19799 42.1778 6.76749 42.1778H30.2532C30.8227 42.1778 31.2845 41.716 31.2845 41.1465C31.2844 40.577 30.8227 40.1152 30.2531 40.1152Z" fill="#E03B24"/>
<path d="M19.8962 44.4541H6.76749C6.19799 44.4541 5.73621 44.9159 5.73621 45.4854C5.73621 46.0549 6.19799 46.5167 6.76749 46.5167H19.8962C20.4657 46.5167 20.9275 46.0549 20.9275 45.4854C20.9275 44.9158 20.4657 44.4541 19.8962 44.4541Z" fill="#E03B24"/>
<path d="M19.3632 11.0945H6.56424C5.99475 11.0945 5.53296 11.5563 5.53296 12.1258C5.53296 12.6953 5.99475 13.157 6.56424 13.157H19.363C19.9325 13.157 20.3943 12.6953 20.3943 12.1258C20.3943 11.5563 19.9326 11.0945 19.3632 11.0945Z" fill="#E03B24"/>
<path d="M33.1362 42.1386L31.4642 40.4667C31.1388 40.1414 30.6365 40.071 30.2339 40.2946L26.9772 42.1049C26.7435 42.2349 26.5695 42.4504 26.4916 42.7062L25.1285 47.188C25.0177 47.5523 25.1166 47.9481 25.386 48.2173C25.5823 48.4137 25.8459 48.5193 26.1154 48.5193C26.2157 48.5193 26.3167 48.5048 26.4154 48.4748L30.897 47.1115C31.1527 47.0335 31.3683 46.8596 31.4983 46.6258L33.3086 43.369C33.5322 42.9664 33.4618 42.4643 33.1362 42.1386ZM29.8978 45.2594L27.6644 45.9389L28.3438 43.7053L30.5561 42.4755L31.1277 43.047L29.8978 45.2594Z" fill="#E03B24"/>
<path d="M60.674 15.5114C60.6608 15.4964 60.6469 15.4819 60.6328 15.4677L58.1361 12.9709C58.1217 12.9566 58.1071 12.9427 58.092 12.9294C57.6064 12.4976 56.8743 12.4979 56.3889 12.9298C56.379 12.9386 56.3694 12.9474 56.3597 12.9566L44.4117 24.4439L33.3428 35.0947C33.313 35.1234 33.285 35.1538 33.2589 35.1858L29.3586 39.965C29.024 40.3751 29.0541 40.9721 29.4284 41.3463L32.2573 44.175C32.4577 44.3753 32.7215 44.477 32.9867 44.477C33.217 44.477 33.448 44.4002 33.6388 44.2448L38.4177 40.3444C38.4497 40.3182 38.4802 40.29 38.5088 40.2605L45.8703 32.6094L60.6467 17.244C60.6562 17.2341 60.6656 17.2239 60.6746 17.2138C61.1058 16.7282 61.1054 15.9963 60.674 15.5114ZM44.3839 31.1796L37.0655 38.7857L33.0566 42.0575L31.5461 40.547L34.8178 36.538L45.8419 25.9304L57.2298 14.9816L58.6221 16.3738L44.3839 31.1796Z" fill="#E03B24"/>
<path d="M51.9906 24.787L48.8172 21.6136C48.4144 21.2108 47.7615 21.2109 47.3587 21.6136C46.956 22.0163 46.956 22.6693 47.3587 23.072L50.5321 26.2454C50.7334 26.4468 50.9973 26.5474 51.2614 26.5474C51.5254 26.5474 51.7893 26.4468 51.9906 26.2454C52.3934 25.8427 52.3934 25.1897 51.9906 24.787Z" fill="#E03B24"/>
</g>
<defs>
<clipPath id="clip0_831_465">
<rect width="61" height="61" fill="white"/>
</clipPath>
</defs>
</svg>
