<svg width="60" height="60" viewBox="0 0 60 60" fill="none" xmlns="http://www.w3.org/2000/svg">
<g clip-path="url(#clip0_831_530)">
<path d="M9.96951 53.3124C9.75166 53.0943 9.44932 52.969 9.14111 52.969C8.83291 52.969 8.53057 53.0943 8.3126 53.3124C8.09463 53.5304 7.96924 53.8327 7.96924 54.1409C7.96924 54.4491 8.09451 54.7514 8.3126 54.9693C8.53057 55.1872 8.83291 55.3127 9.14111 55.3127C9.44932 55.3127 9.75166 55.1874 9.96951 54.9693C10.1875 54.7514 10.313 54.4491 10.313 54.1409C10.313 53.8327 10.1876 53.5303 9.96951 53.3124Z" fill="#E03B24"/>
<path d="M55.0224 21.4381C54.8044 21.22 54.5032 21.0947 54.1939 21.0947C53.8856 21.0947 53.5833 21.22 53.3653 21.4381C53.1475 21.6561 53.022 21.9584 53.022 22.2666C53.022 22.5748 53.1474 22.8771 53.3653 23.095C53.5833 23.313 53.8856 23.4385 54.1939 23.4385C54.5032 23.4385 54.8044 23.3131 55.0224 23.095C55.2414 22.8771 55.3668 22.5748 55.3668 22.2666C55.3668 21.9584 55.2414 21.6561 55.0224 21.4381Z" fill="#E03B24"/>
<path d="M59.6565 0.343242C59.4366 0.123516 59.1385 0 58.8276 0L30.0002 0.00152344C29.3531 0.00152344 28.8284 0.526289 28.8284 1.1734V4.52461L17.7203 7.50105C17.0951 7.66863 16.7241 8.31117 16.8917 8.93625L22.6488 30.4216L17.6684 35.402C17.0345 34.4764 15.9702 33.8678 14.7664 33.8678H3.51673C1.57821 33.8678 0.0012207 35.4449 0.0012207 37.3833V56.4844C0.0012207 58.4229 1.57821 60 3.51673 60H14.7665C16.4133 60 17.7987 58.8614 18.1784 57.3305L19.5718 58.5456C20.6474 59.4836 22.0256 60.0001 23.4528 60.0001H58.8278C59.4749 60.0001 59.9997 59.4754 59.9997 58.8282V1.17188C59.9995 0.861094 59.8762 0.562969 59.6565 0.343242ZM15.9381 56.4845C15.9381 57.1305 15.4124 57.6564 14.7663 57.6564H3.51661C2.87044 57.6564 2.34474 57.1307 2.34474 56.4845V37.3834C2.34474 36.7372 2.87044 36.2115 3.51661 36.2115H7.96962V49.7109C7.96962 50.358 8.49438 50.8828 9.14149 50.8828C9.7886 50.8828 10.3134 50.358 10.3134 49.7109V36.2115H14.7664C15.4125 36.2115 15.9383 36.7372 15.9383 37.3834V56.4845H15.9381ZM19.4588 9.4616L28.8284 6.95098V11.2934L28.043 11.5038C27.7427 11.5843 27.4868 11.7806 27.3315 12.0498C27.1761 12.319 27.1339 12.6388 27.2144 12.939C27.6647 14.6196 26.6638 16.3532 24.9833 16.8035C24.6827 16.8841 24.4264 17.0808 24.2711 17.3505C24.1158 17.6202 24.074 17.9406 24.1552 18.2411L28.7231 35.1557H26.3711L25.159 30.4138C25.1205 30.2629 25.053 30.1237 24.9626 30.0028L19.4588 9.4616ZM28.8284 16.6675V26.5559L26.691 18.6416C27.5839 18.1806 28.3145 17.4908 28.8284 16.6675ZM45.664 57.6562H23.4525C22.5918 57.6562 21.7606 57.3448 21.1118 56.7791L18.2819 54.311V38.1032L23.3981 32.987L24.3259 36.6175C24.4586 37.1362 24.9258 37.4991 25.4613 37.4991L48.5008 37.5005C49.4055 37.5005 50.1414 38.2364 50.1414 39.1411C50.1414 40.0458 49.4055 40.7817 48.5008 40.7817H36.6953C36.0482 40.7817 35.5234 41.3065 35.5234 41.9536C35.5234 42.6007 36.0482 43.1255 36.6953 43.1255H52.1688C53.0735 43.1255 53.8094 43.8614 53.8094 44.7661C53.8094 45.6708 53.0735 46.4067 52.1688 46.4067H36.6953C36.0482 46.4067 35.5234 46.9315 35.5234 47.5786C35.5234 48.2257 36.0482 48.7505 36.6953 48.7505H49.6613C50.566 48.7505 51.3019 49.4864 51.3019 50.3911C51.3019 51.2958 50.566 52.0317 49.6613 52.0317H36.6953C36.0482 52.0317 35.5234 52.5565 35.5234 53.2036C35.5234 53.8507 36.0482 54.3755 36.6953 54.3755H45.664C46.5687 54.3755 47.3047 55.1114 47.3047 56.0161C47.3045 56.9203 46.5686 57.6562 45.664 57.6562ZM57.6559 57.6562H57.6558H49.2934C49.5207 57.1555 49.6483 56.6004 49.6483 56.0156C49.6483 55.4309 49.5207 54.8757 49.2934 54.375H49.6613C51.8582 54.375 53.6456 52.5877 53.6456 50.3907C53.6456 49.75 53.4926 49.1445 53.2226 48.6075C54.9097 48.1441 56.1529 46.5979 56.1529 44.7659C56.1529 43.8771 55.8602 43.0555 55.3665 42.3922V27.5399C55.3665 26.8928 54.8417 26.368 54.1946 26.368C53.5475 26.368 53.0227 26.8928 53.0227 27.5399V40.8749C52.7473 40.8145 52.4617 40.7817 52.1685 40.7817H52.1301C52.3573 40.281 52.4849 39.7259 52.4849 39.1411C52.4849 36.9441 50.6976 35.1568 48.5007 35.1568H46.6169C48.6172 34.299 50.022 32.3108 50.022 30C50.022 26.9075 47.5062 24.3916 44.4138 24.3916C41.3214 24.3916 38.8055 26.9075 38.8055 30C38.8055 32.3108 40.2105 34.299 42.2106 35.1568H35.8048V12.8746C37.8983 12.4184 39.5501 10.7666 40.0062 8.67305H48.8212C49.2773 10.7666 50.9291 12.4184 53.0226 12.8746V16.5179C53.0226 17.165 53.5474 17.6898 54.1945 17.6898C54.8416 17.6898 55.3663 17.165 55.3663 16.5179V11.8283C55.3663 11.1812 54.8416 10.6564 54.1945 10.6564C52.4546 10.6564 51.0393 9.24094 51.0393 7.50117C51.0393 6.85406 50.5145 6.3293 49.8674 6.3293H38.9601C38.313 6.3293 37.7882 6.85406 37.7882 7.50117C37.7882 9.24105 36.3728 10.6564 34.6331 10.6564C33.986 10.6564 33.4612 11.1812 33.4612 11.8283V35.1567H31.1723V2.34504L57.6559 2.34375V57.6562ZM44.414 33.2646C42.6139 33.2646 41.1495 31.8001 41.1495 30.0001C41.1495 28.2001 42.614 26.7355 44.414 26.7355C46.214 26.7355 47.6785 28.2 47.6785 30C47.6785 31.8 46.2141 33.2646 44.414 33.2646Z" fill="#E03B24"/>
</g>
<defs>
<clipPath id="clip0_831_530">
<rect width="60" height="60" fill="white"/>
</clipPath>
</defs>
</svg>
