<svg width="63" height="63" viewBox="0 0 63 63" fill="none" xmlns="http://www.w3.org/2000/svg">
<path d="M59.85 24.4761V8.3995C59.85 7.81964 59.3799 7.3495 58.8 7.3495H49.2975C37.1336 -2.48506 19.3003 -0.596637 9.46588 11.5672C6.54045 15.1854 4.55162 19.4686 3.675 24.0382C1.36028 25.8216 0.0028875 28.5774 0 31.4995V35.6995C0.006825 40.561 3.69626 44.6265 8.5344 45.1033C9.08368 47.3528 11.3526 48.7309 13.602 48.1816C15.4825 47.7224 16.8042 46.0353 16.8 44.0995V23.0995C16.8051 20.784 14.932 18.9028 12.6165 18.8977C10.6807 18.8935 8.99364 20.2152 8.5344 22.0957C7.71028 22.1784 6.90073 22.3698 6.12675 22.6648C9.82459 8.66909 24.1681 0.320932 38.1638 4.01877C40.8358 4.72476 43.3793 5.84892 45.7002 7.3495H31.5C30.9201 7.3495 30.45 7.81964 30.45 8.3995V25.1995C30.45 25.7794 30.9201 26.2495 31.5 26.2495H37.275L40.11 30.0295C40.4579 30.4935 41.116 30.5874 41.58 30.2395C41.6595 30.1798 41.7303 30.109 41.79 30.0295L44.625 26.2495H46.2V44.0995C46.1949 46.415 48.0679 48.2962 50.3835 48.3013C52.3193 48.3055 54.0064 46.9839 54.4656 45.1033C55.2282 45.0267 55.9785 44.8569 56.7 44.5983V47.2495C56.6937 52.4659 52.4664 56.6931 47.25 56.6995H42V55.6495C42 55.0696 41.5299 54.5995 40.95 54.5995H36.3489C35.5909 53.9266 34.6135 53.5533 33.6 53.5495H29.4C27.0804 53.5495 25.2 55.4299 25.2 57.7495C25.2 60.0691 27.0804 61.9495 29.4 61.9495H33.6C34.6135 61.9457 35.5909 61.5724 36.3489 60.8995H40.95C41.5299 60.8995 42 60.4294 42 59.8495V58.7995H47.25C53.6257 58.792 58.7925 53.6252 58.8 47.2495V43.5514C61.4226 41.7991 62.9982 38.8537 63 35.6995V31.4995C63.0016 28.8158 61.8552 26.2596 59.85 24.4761ZM10.5 23.0995C10.5 21.9396 11.4401 20.9995 12.6 20.9995C13.7599 20.9995 14.7 21.9396 14.7 23.0995V44.0995C14.7 45.2594 13.7599 46.1995 12.6 46.1995C11.4401 46.1995 10.5 45.2594 10.5 44.0995V23.0995ZM8.4 24.2241V42.975C4.78603 42.4482 2.10459 39.3517 2.1 35.6995V31.4995C2.10459 27.8473 4.78603 24.7508 8.4 24.2241ZM33.6 59.8495H29.4C28.2401 59.8495 27.3 58.9094 27.3 57.7495C27.3 56.5896 28.2401 55.6495 29.4 55.6495H33.6C34.7599 55.6495 35.7 56.5896 35.7 57.7495C35.7 58.9094 34.7599 59.8495 33.6 59.8495ZM39.9 58.7995H37.6509C37.8497 58.1136 37.8497 57.3854 37.6509 56.6995H39.9V58.7995ZM52.5 44.0995C52.5 45.2594 51.5599 46.1995 50.4 46.1995C49.2401 46.1995 48.3 45.2594 48.3 44.0995V26.2495H52.5V44.0995ZM44.1 24.1495C43.7695 24.1495 43.4583 24.3052 43.26 24.5695L40.95 27.6492L38.64 24.5695C38.4417 24.3052 38.1305 24.1495 37.8 24.1495H32.55V9.4495H57.75V24.1495H44.1ZM60.9 35.6995C60.8957 39.35 58.2129 42.444 54.6 42.9655V26.2495H58.6876C60.1046 27.6284 60.9028 29.5224 60.9 31.4995V35.6995Z" fill="#E03B24"/>
<path d="M39.8045 11.5493H37.7896V13.6493H39.8045V11.5493Z" fill="#E03B24"/>
<path d="M55.65 11.5493H42V13.6493H55.65V11.5493Z" fill="#E03B24"/>
<path d="M55.6499 15.7495H34.6499V17.8495H55.6499V15.7495Z" fill="#E03B24"/>
<path d="M55.6499 19.9495H34.6499V22.0495H55.6499V19.9495Z" fill="#E03B24"/>
</svg>
