<svg width="242" height="30" viewBox="0 0 242 30" fill="none" xmlns="http://www.w3.org/2000/svg">
<path d="M9.05088 27.48C10.2509 27.48 11.5842 27.3067 13.0509 26.96L13.5309 28.76C11.8242 29.2133 10.2775 29.44 8.89088 29.44C7.50421 29.44 6.14421 29.2267 4.81088 28.8C2.03755 27.8933 0.650879 25.56 0.650879 21.8V16.68C0.650879 14.7867 1.02421 13.2 1.77088 11.92C3.05088 9.70666 5.15755 8.6 8.09088 8.6C9.85088 8.6 11.6375 9.02666 13.4509 9.88L12.8109 11.52C11.2909 10.9333 9.97088 10.64 8.85088 10.64C7.75755 10.64 6.78421 10.7733 5.93088 11.04C5.07755 11.3067 4.35755 11.9067 3.77088 12.84C3.18421 13.7733 2.89088 14.9733 2.89088 16.44V22.24C2.89088 25.7333 4.94421 27.48 9.05088 27.48Z" fill="url(#paint0_linear_847_2)"/>
<path d="M27.1634 10.32C28.5234 9.17333 30.43 8.6 32.8834 8.6C34.27 8.6 35.4567 8.85333 36.4434 9.36C38.71 10.4 39.8434 12.3333 39.8434 15.16V29H37.6434V15.28C37.6434 13.8933 37.27 12.8133 36.5234 12.04C35.6167 11.1067 34.2567 10.64 32.4434 10.64C30.6567 10.64 28.95 11.0933 27.3234 12V29H25.0834V8.96H27.3234L27.1634 10.32Z" fill="url(#paint1_linear_847_2)"/>
<path d="M57.9824 29H54.9024L48.7824 8.96H51.1424L56.4624 26.68L61.8224 8.96H64.1824L57.9824 29Z" fill="url(#paint2_linear_847_2)"/>
<path d="M79.7284 27.52C81.5684 27.52 83.5151 26.9733 85.5684 25.88L86.4484 27.6C84.3951 28.8533 82.2484 29.48 80.0084 29.48C75.3684 29.48 73.0484 27.5333 73.0484 23.64V15.44C73.0484 13.28 73.715 11.6 75.0484 10.4C76.4084 9.2 78.195 8.6 80.4084 8.6C82.6217 8.6 84.3417 9.2 85.5684 10.4C86.8217 11.5733 87.4484 13.2133 87.4484 15.32V20.52L75.2884 21.2V23.64C75.2884 25.08 75.8084 26.12 76.8484 26.76C77.6484 27.2667 78.6084 27.52 79.7284 27.52ZM85.2084 18.52V15.04C85.2084 13.8933 84.9017 12.96 84.2884 12.24C83.675 11.4933 83.035 11.0267 82.3684 10.84C81.7017 10.6267 81.035 10.52 80.3684 10.52C78.9017 10.52 77.6884 10.92 76.7284 11.72C75.7684 12.52 75.2884 13.7733 75.2884 15.48V19L85.2084 18.52Z" fill="url(#paint3_linear_847_2)"/>
<path d="M108.832 11C107.819 10.7333 106.792 10.6 105.752 10.6C104.712 10.6 103.765 10.84 102.912 11.32C102.085 11.7733 101.672 12.44 101.672 13.32V29H99.4321V8.96H101.672L101.552 10.36C102.805 9.21333 104.459 8.64 106.512 8.64C107.419 8.64 108.392 8.74667 109.432 8.96L108.832 11Z" fill="url(#paint4_linear_847_2)"/>
<path d="M123.058 1.96C123.058 2.30666 122.924 2.61333 122.658 2.88C122.391 3.14666 122.071 3.28 121.698 3.28C121.351 3.28 121.044 3.14666 120.778 2.88C120.511 2.58666 120.378 2.26666 120.378 1.92C120.378 1.57333 120.511 1.26666 120.778 0.999997C121.044 0.73333 121.364 0.599997 121.738 0.599997C122.111 0.599997 122.418 0.73333 122.658 0.999997C122.924 1.26666 123.058 1.58666 123.058 1.96ZM122.818 29H120.578V8.96H122.818V29Z" fill="url(#paint5_linear_847_2)"/>
<path d="M139.602 29H137.362V7.04C137.362 5.70666 137.589 4.56 138.042 3.6C138.495 2.64 139.069 1.96 139.762 1.56C140.909 0.893331 142.082 0.559998 143.282 0.559998C143.762 0.559998 144.229 0.613331 144.682 0.719998L144.322 2.68C143.975 2.62666 143.642 2.6 143.322 2.6C140.842 2.6 139.602 4.08 139.602 7.04V8.96H144.162L143.202 11.08H139.602V29Z" fill="url(#paint6_linear_847_2)"/>
<path d="M152.774 28.6C152.534 28.8667 152.227 29 151.854 29C151.48 29 151.16 28.8667 150.894 28.6C150.654 28.3333 150.534 28.0267 150.534 27.68C150.534 27.3333 150.654 27.0267 150.894 26.76C151.16 26.4933 151.48 26.36 151.854 26.36C152.227 26.36 152.534 26.4933 152.774 26.76C153.04 27.0267 153.174 27.3333 153.174 27.68C153.174 28.0267 153.04 28.3333 152.774 28.6Z" fill="url(#paint7_linear_847_2)"/>
<path d="M172.738 27.48C173.938 27.48 175.272 27.3067 176.738 26.96L177.218 28.76C175.512 29.2133 173.965 29.44 172.578 29.44C171.192 29.44 169.832 29.2267 168.498 28.8C165.725 27.8933 164.338 25.56 164.338 21.8V16.68C164.338 14.7867 164.712 13.2 165.458 11.92C166.738 9.70666 168.845 8.6 171.778 8.6C173.538 8.6 175.325 9.02666 177.138 9.88L176.498 11.52C174.978 10.9333 173.658 10.64 172.538 10.64C171.445 10.64 170.472 10.7733 169.618 11.04C168.765 11.3067 168.045 11.9067 167.458 12.84C166.872 13.7733 166.578 14.9733 166.578 16.44V22.24C166.578 25.7333 168.632 27.48 172.738 27.48Z" fill="url(#paint8_linear_847_2)"/>
<path d="M204.251 16.36V21.64C204.251 23.88 203.638 25.7333 202.411 27.2C201.184 28.6667 199.331 29.4 196.851 29.4C194.371 29.4 192.491 28.6667 191.211 27.2C189.958 25.7067 189.331 23.8533 189.331 21.64V16.36C189.331 13.8267 189.971 11.8933 191.251 10.56C192.558 9.2 194.398 8.52 196.771 8.52C199.144 8.52 200.984 9.22666 202.291 10.64C203.598 12.0267 204.251 13.9333 204.251 16.36ZM202.011 22.04V16.36C202.011 12.4933 200.291 10.56 196.851 10.56C193.331 10.56 191.571 12.4933 191.571 16.36V22.04C191.571 23.64 192.038 24.9333 192.971 25.92C193.931 26.9067 195.224 27.4 196.851 27.4C198.504 27.4 199.771 26.92 200.651 25.96C201.558 24.9733 202.011 23.6667 202.011 22.04Z" fill="url(#paint9_linear_847_2)"/>
<path d="M228.986 10.56C231.253 9.28 233.399 8.64 235.426 8.64C237.346 8.64 238.866 9.25333 239.986 10.48C241.106 11.7067 241.666 13.2667 241.666 15.16V29H239.466V15.28C239.466 14.08 239.213 13.1067 238.706 12.36C238.199 11.6133 237.586 11.1467 236.866 10.96C236.146 10.7733 235.559 10.68 235.106 10.68C234.679 10.68 234.186 10.7067 233.626 10.76C233.093 10.7867 232.373 10.9733 231.466 11.32L229.986 12.04C230.439 12.9467 230.666 13.9867 230.666 15.16V29H228.466V15.28C228.466 13.8933 228.133 12.8133 227.466 12.04C226.666 11.1333 225.439 10.68 223.786 10.68C222.159 10.68 220.546 11.12 218.946 12V29H216.706V8.96H218.946L218.746 10.24C220.586 9.2 222.439 8.68 224.306 8.68C226.199 8.68 227.759 9.30666 228.986 10.56Z" fill="url(#paint10_linear_847_2)"/>
<defs>
<linearGradient id="paint0_linear_847_2" x1="243" y1="2.00005" x2="-48.5" y2="2.00005" gradientUnits="userSpaceOnUse">
<stop stop-color="white"/>
<stop offset="1" stop-color="white" stop-opacity="0"/>
</linearGradient>
<linearGradient id="paint1_linear_847_2" x1="243" y1="2.00005" x2="-48.5" y2="2.00005" gradientUnits="userSpaceOnUse">
<stop stop-color="white"/>
<stop offset="1" stop-color="white" stop-opacity="0"/>
</linearGradient>
<linearGradient id="paint2_linear_847_2" x1="243" y1="2.00005" x2="-48.5" y2="2.00005" gradientUnits="userSpaceOnUse">
<stop stop-color="white"/>
<stop offset="1" stop-color="white" stop-opacity="0"/>
</linearGradient>
<linearGradient id="paint3_linear_847_2" x1="243" y1="2.00005" x2="-48.5" y2="2.00005" gradientUnits="userSpaceOnUse">
<stop stop-color="white"/>
<stop offset="1" stop-color="white" stop-opacity="0"/>
</linearGradient>
<linearGradient id="paint4_linear_847_2" x1="243" y1="2.00005" x2="-48.5" y2="2.00005" gradientUnits="userSpaceOnUse">
<stop stop-color="white"/>
<stop offset="1" stop-color="white" stop-opacity="0"/>
</linearGradient>
<linearGradient id="paint5_linear_847_2" x1="243" y1="2.00005" x2="-48.5" y2="2.00005" gradientUnits="userSpaceOnUse">
<stop stop-color="white"/>
<stop offset="1" stop-color="white" stop-opacity="0"/>
</linearGradient>
<linearGradient id="paint6_linear_847_2" x1="243" y1="2.00005" x2="-48.5" y2="2.00005" gradientUnits="userSpaceOnUse">
<stop stop-color="white"/>
<stop offset="1" stop-color="white" stop-opacity="0"/>
</linearGradient>
<linearGradient id="paint7_linear_847_2" x1="243" y1="2.00005" x2="-48.5" y2="2.00005" gradientUnits="userSpaceOnUse">
<stop stop-color="white"/>
<stop offset="1" stop-color="white" stop-opacity="0"/>
</linearGradient>
<linearGradient id="paint8_linear_847_2" x1="243" y1="2.00005" x2="-48.5" y2="2.00005" gradientUnits="userSpaceOnUse">
<stop stop-color="white"/>
<stop offset="1" stop-color="white" stop-opacity="0"/>
</linearGradient>
<linearGradient id="paint9_linear_847_2" x1="243" y1="2.00005" x2="-48.5" y2="2.00005" gradientUnits="userSpaceOnUse">
<stop stop-color="white"/>
<stop offset="1" stop-color="white" stop-opacity="0"/>
</linearGradient>
<linearGradient id="paint10_linear_847_2" x1="243" y1="2.00005" x2="-48.5" y2="2.00005" gradientUnits="userSpaceOnUse">
<stop stop-color="white"/>
<stop offset="1" stop-color="white" stop-opacity="0"/>
</linearGradient>
</defs>
</svg>
