<svg width="22" height="22" viewBox="0 0 22 22" fill="none" xmlns="http://www.w3.org/2000/svg">
<path fill-rule="evenodd" clip-rule="evenodd" d="M0 2C0 0.9 0.9 0 2 0C3.1 0 4 0.9 4 2C4 3.1 3.1 4 2 4C0.9 4 0 3.1 0 2ZM2 9C0.9 9 0 9.9 0 11C0 12.1 0.9 13 2 13C3.1 13 4 12.1 4 11C4 9.9 3.1 9 2 9ZM4 20C4 21.1 3.1 22 2 22C0.9 22 0 21.1 0 20C0 18.9 0.9 18 2 18C3.1 18 4 18.9 4 20Z" fill="#B6B7B9"/>
<path fill-rule="evenodd" clip-rule="evenodd" d="M9 2C9 0.9 9.9 0 11 0C12.1 0 13 0.9 13 2C13 3.1 12.1 4 11 4C9.9 4 9 3.1 9 2ZM11 9C9.9 9 9 9.9 9 11C9 12.1 9.9 13 11 13C12.1 13 13 12.1 13 11C13 9.9 12.1 9 11 9ZM13 20C13 21.1 12.1 22 11 22C9.9 22 9 21.1 9 20C9 18.9 9.9 18 11 18C12.1 18 13 18.9 13 20Z" fill="#B6B7B9"/>
<path fill-rule="evenodd" clip-rule="evenodd" d="M18 2C18 0.9 18.9 0 20 0C21.1 0 22 0.9 22 2C22 3.1 21.1 4 20 4C18.9 4 18 3.1 18 2ZM20 9C18.9 9 18 9.9 18 11C18 12.1 18.9 13 20 13C21.1 13 22 12.1 22 11C22 9.9 21.1 9 20 9ZM22 20C22 21.1 21.1 22 20 22C18.9 22 18 21.1 18 20C18 18.9 18.9 18 20 18C21.1 18 22 18.9 22 20Z" fill="#B6B7B9"/>
</svg>
