<svg width="40" height="40" viewBox="0 0 40 40" fill="none" xmlns="http://www.w3.org/2000/svg">
<circle cx="20" cy="20" r="20" fill="#E03B24"/>
<path fill-rule="evenodd" clip-rule="evenodd" d="M26.9841 11H13.873C12.8335 11 12 11.8429 12 12.873V25.9841C12 27.0143 12.8335 27.8571 13.873 27.8571H17.619L20.4286 30.6667L23.2381 27.8571H26.9841C28.0143 27.8571 28.8571 27.0143 28.8571 25.9841V12.873C28.8571 11.8429 28.0143 11 26.9841 11ZM19.4919 23.1746H21.365V25.0476H19.4919V23.1746ZM22.3017 17.5555C22.3017 16.5254 21.4588 15.6825 20.4286 15.6825C19.3985 15.6825 18.5556 16.5254 18.5556 17.5555H16.6826C16.6826 15.4859 18.359 13.8095 20.4286 13.8095C22.4983 13.8095 24.1747 15.4859 24.1747 17.5555C24.1747 18.757 23.4348 19.4036 22.7144 20.0331C22.031 20.6303 21.3652 21.2123 21.3652 22.2381H19.4921C19.4921 20.5324 20.3744 19.8562 21.1502 19.2616C21.7587 18.7951 22.3017 18.3789 22.3017 17.5555Z" fill="white"/>
</svg>
