<svg width="83" height="83" viewBox="0 0 83 83" fill="none" xmlns="http://www.w3.org/2000/svg">
<path d="M50.3674 42.1771L44.1745 39.7884L40.6199 36.234C40.3887 36.0029 40.0862 35.8842 39.7813 35.8789V32.9742C41.4635 31.1869 42.6587 28.918 43.1318 26.36C43.1328 26.3588 43.1339 26.3575 43.135 26.3566C43.4447 26.3749 43.7572 26.3522 44.0662 26.2889C45.7369 25.9469 46.9496 24.3958 46.9496 22.6008V21.6698C46.9496 20.6176 46.5171 19.6532 45.8155 18.9702C46.9556 12.831 46.0352 7.83053 43.142 4.48962C40.3527 1.26867 35.8558 -0.269751 30.1369 0.0387427C24.8107 0.326649 21.3898 2.79347 20.3402 3.66318C18.863 3.85512 14.6503 4.91969 14.6503 10.8104C14.6503 14.0722 15.1802 16.785 15.5524 18.2887C14.2988 18.8747 13.4557 20.1831 13.4557 21.6836V22.6006C13.4557 24.3957 14.6683 25.9467 16.3393 26.2888C16.648 26.352 16.961 26.3747 17.2703 26.3564C17.2714 26.3575 17.2726 26.3588 17.2736 26.36C17.7466 28.9179 18.9418 31.1868 20.624 32.974V35.8787C20.3191 35.884 20.0166 36.0027 19.7854 36.2339L16.231 39.7883L9.26535 42.4751C5.91552 43.7671 3.76158 47.0454 3.90521 50.6329L4.89456 75.335C4.92082 75.9894 5.45951 76.5022 6.1086 76.5022C6.12513 76.5022 6.14167 76.5018 6.1582 76.5012C6.82917 76.4743 7.35116 75.9087 7.32442 75.2377L6.33506 50.536C6.3088 49.8794 6.39164 49.2376 6.56882 48.6305L10.5181 52.5798C11.6424 53.7041 12.2615 55.1989 12.2615 56.7887V75.2867C12.2615 75.9581 12.8058 76.5025 13.4773 76.5025C14.1487 76.5025 14.6931 75.9581 14.6931 75.2867V56.7887C14.6931 54.5493 13.8211 52.4438 12.2375 50.8604L7.78124 46.4041C8.40569 45.6819 9.20732 45.1042 10.1406 44.7441L16.6397 42.2373L21.6012 49.6794C22.2027 50.5817 23.1666 51.1604 24.2457 51.2673C24.3658 51.2791 24.4856 51.2849 24.605 51.2849C25.2681 51.2849 25.9101 51.0993 26.47 50.7586L25.4045 75.2337C25.3753 75.9045 25.8953 76.472 26.5663 76.5012C26.5843 76.502 26.6023 76.5023 26.6201 76.5023C27.2673 76.5023 27.8055 75.9923 27.8338 75.3394L28.8219 52.6458H31.5847L32.5728 75.3394C32.6012 75.9922 33.1394 76.5023 33.7865 76.5023C33.8043 76.5023 33.8223 76.502 33.8403 76.5012C34.5111 76.472 35.0313 75.9045 35.0022 75.2337L33.9366 50.7586C34.4965 51.0993 35.1383 51.2849 35.8015 51.2849C35.9207 51.2849 36.0406 51.2791 36.1606 51.2673C37.2388 51.1607 38.2027 50.5819 38.8043 49.6796L43.7658 42.2374L49.492 44.4462C49.6359 44.5016 49.7838 44.5279 49.9294 44.5279C50.4173 44.5279 50.8779 44.2319 51.064 43.7493C51.3058 43.1227 50.9938 42.419 50.3674 42.1771ZM19.6621 25.9046C19.4423 24.7087 18.3341 23.8413 17.1408 23.9282C17.0383 23.9354 16.9326 23.9283 16.8268 23.9068C16.2912 23.7972 15.8874 23.2356 15.8874 22.6008V21.6837C15.8874 21.0625 16.3054 20.5026 16.8391 20.4089C17.2883 20.3301 17.7184 20.4952 17.9911 20.8507C18.2175 21.1459 18.5194 21.3569 18.8648 21.4613C19.3695 21.6136 19.9265 21.5242 20.3546 21.2219C21.3428 20.5243 22.1804 19.6395 22.844 18.5923C23.2034 18.0251 23.0349 17.2739 22.4679 16.9145C21.9003 16.5548 21.1494 16.7235 20.79 17.2906C20.4117 17.8876 19.9591 18.4122 19.4398 18.8559C19.0261 18.4915 18.5372 18.2307 18.012 18.0869C17.6863 16.8605 17.0819 14.1369 17.0819 10.8103C17.0819 8.8301 17.6957 7.43758 18.9063 6.67193C19.8487 6.0757 20.8437 6.05284 20.844 6.05268C21.1549 6.05268 21.4574 5.93028 21.6833 5.71662C21.7144 5.68696 24.8674 2.75861 30.2681 2.46682C35.2089 2.19917 39.0247 3.44969 41.3035 6.08121C43.6119 8.7471 44.3727 12.8431 43.5231 17.9676C43.1577 17.9505 42.7526 17.9771 42.3498 18.0478L41.1314 15.1216C40.8981 14.5613 40.2871 14.259 39.7003 14.413C39.5816 14.4441 27.7646 17.4592 22.782 11.2564C22.3617 10.7329 21.5964 10.6493 21.0728 11.07C20.5493 11.4905 20.4657 12.2556 20.8863 12.7792C25.9404 19.0715 36.0051 17.6608 39.2793 16.9998L40.2263 19.2742C40.6136 20.204 41.6041 20.7119 42.5811 20.4817C42.9642 20.3914 43.3809 20.375 43.5628 20.4112C44.1072 20.5195 44.5177 21.0604 44.5177 21.6696V22.6006C44.5177 23.2356 44.1137 23.797 43.5784 23.9066C43.4722 23.9283 43.3668 23.9354 43.2642 23.928C42.0714 23.8408 40.9626 24.7085 40.7431 25.9046C39.8087 30.9913 35.3758 34.6831 30.2026 34.6831C25.0292 34.6831 20.5963 30.9913 19.6621 25.9046ZM25.4304 48.5096C25.1806 48.7593 24.8358 48.8826 24.4847 48.8476C24.1334 48.8129 23.8197 48.6245 23.6239 48.3308L18.6254 40.8329L20.7004 38.7579L28.4239 45.5159L25.4304 48.5096ZM28.9269 50.2144L29.0072 48.3715L30.2024 47.1761L31.3978 48.3715L31.4781 50.2144H28.9269ZM30.2024 43.8412L23.0553 37.5875V35.0023C25.1258 36.3439 27.5865 37.1149 30.2024 37.1149C32.8184 37.1149 35.279 36.3439 37.3493 35.0023V37.5875L30.2024 43.8412ZM36.7813 48.3306C36.5853 48.6245 36.2716 48.8129 35.9203 48.8476C35.7138 48.8685 35.3167 48.8512 34.9749 48.5096L31.9814 45.5159L39.7048 38.7579L41.7798 40.8329L36.7813 48.3306Z" fill="url(#paint0_linear_808_3)"/>
<path d="M79.1014 57.0939C79.1014 54.2738 76.8073 51.9796 73.9872 51.9796H66.1066V49.2971C66.1066 47.1935 64.3952 45.4823 62.2918 45.4823H54.4947C52.3911 45.4823 50.6799 47.1937 50.6799 49.2971V51.9796H42.7993C39.9792 51.9796 37.6851 54.2738 37.6851 57.0939V60.7036C37.6851 62.0343 38.1331 63.3122 38.9845 64.494V78.0178C38.9845 80.7649 41.2195 82.9999 43.9666 82.9999H72.82C75.5671 82.9999 77.8021 80.7649 77.8021 78.0178V64.494C78.6535 63.3121 79.1016 62.0342 79.1016 60.7034L79.1014 57.0939ZM53.1114 49.2969C53.1116 48.5342 53.7321 47.9138 54.4947 47.9138H62.2916C63.0544 47.9138 63.6748 48.5343 63.6748 49.2969V51.9795H53.1114V49.2969ZM76.6696 60.7037C76.6696 62.7907 74.6948 64.8604 71.3043 66.4064V66.1905C71.3043 65.519 70.7599 64.9747 70.0885 64.9747H64.8906C64.2191 64.9747 63.6748 65.519 63.6748 66.1905V70.0889C63.6748 72.1924 65.3862 73.9036 67.4895 73.9036C69.5929 73.9036 71.3043 72.1922 71.3043 70.0889V69.0491C72.8829 68.4175 74.2458 67.6825 75.3702 66.866V78.018C75.3703 79.4243 74.2263 80.5683 72.8198 80.5683H43.9666C42.5603 80.5683 41.4162 79.4241 41.4162 78.0178V66.8658C42.5406 67.6824 43.9033 68.4174 45.482 69.0491V70.0889C45.482 72.1924 47.1934 73.9036 49.2968 73.9036C51.1035 73.9036 52.6199 72.6406 53.012 70.9515C54.7578 71.1847 56.5614 71.3047 58.3932 71.3047C58.8374 71.3047 59.2876 71.2976 59.7311 71.2835C60.4023 71.2622 60.9291 70.7008 60.9077 70.0297C60.8865 69.3586 60.33 68.8299 59.654 68.8531C59.2359 68.8664 58.8118 68.8731 58.3931 68.8731C56.5906 68.8731 54.8192 68.7503 53.1114 68.5112V66.1905C53.1114 65.519 52.567 64.9747 51.8956 64.9747H46.6977C46.0262 64.9747 45.4819 65.519 45.4819 66.1905V66.4064C42.0914 64.8604 40.1165 62.7906 40.1165 60.7037V57.094C40.1165 55.6148 41.3199 54.4114 42.7991 54.4114H73.987C75.4663 54.4114 76.6696 55.6148 76.6696 57.094V60.7037ZM68.873 67.4061V70.0887C68.873 70.8514 68.2524 71.4718 67.4899 71.4718C66.7273 71.4718 66.1067 70.8513 66.1067 70.0887V67.4061H68.873ZM47.9135 70.0887V67.4061H50.6798V70.0887C50.6798 70.8514 50.0592 71.4718 49.2966 71.4718C48.5341 71.4718 47.9135 70.8514 47.9135 70.0887Z" fill="url(#paint1_linear_808_3)"/>
<defs>
<linearGradient id="paint0_linear_808_3" x1="27.5221" y1="0" x2="27.5221" y2="76.5025" gradientUnits="userSpaceOnUse">
<stop stop-color="#FE4746"/>
<stop offset="1" stop-color="#D23614"/>
</linearGradient>
<linearGradient id="paint1_linear_808_3" x1="58.3933" y1="45.4823" x2="58.3933" y2="82.9999" gradientUnits="userSpaceOnUse">
<stop stop-color="#FE4746"/>
<stop offset="1" stop-color="#D23614"/>
</linearGradient>
</defs>
</svg>
