<svg width="79" height="79" viewBox="0 0 79 79" fill="none" xmlns="http://www.w3.org/2000/svg">
<g clip-path="url(#clip0_808_25)">
<path d="M54.1101 76.6809H10.2023V19.4792C10.2023 18.8388 9.68305 18.3197 9.04272 18.3197C8.40239 18.3197 7.88318 18.8388 7.88318 19.4792V77.0675C7.88318 78.1332 8.75017 79 9.81575 79H54.1101C54.7504 79 55.2695 78.481 55.2696 77.8405C55.2696 77.2 54.7504 76.6809 54.1101 76.6809Z" fill="black"/>
<path d="M54.1101 76.6809H10.2023V19.4792C10.2023 18.8388 9.68305 18.3197 9.04272 18.3197C8.40239 18.3197 7.88318 18.8388 7.88318 19.4792V77.0675C7.88318 78.1332 8.75017 79 9.81575 79H54.1101C54.7504 79 55.2695 78.481 55.2696 77.8405C55.2696 77.2 54.7504 76.6809 54.1101 76.6809Z" fill="url(#paint0_linear_808_25)"/>
<path d="M70.7886 10.4846L60.9328 0.35118C60.7144 0.126678 60.4146 0 60.1016 0H9.81575C8.75017 0 7.88333 0.867148 7.88318 1.93272V10.9765C7.88318 11.617 8.40239 12.1361 9.04272 12.1361C9.68305 12.1361 10.2023 11.617 10.2023 10.9765V2.31924H59.6118L68.798 11.7641V76.6809H62.2265C61.5862 76.6809 61.067 77.2 61.067 77.8405C61.067 78.4809 61.5862 79 62.2265 79H69.1844C70.2501 79 71.117 78.1332 71.117 77.0676V11.293C71.117 10.991 70.9992 10.7011 70.7886 10.4846Z" fill="black"/>
<path d="M70.7886 10.4846L60.9328 0.35118C60.7144 0.126678 60.4146 0 60.1016 0H9.81575C8.75017 0 7.88333 0.867148 7.88318 1.93272V10.9765C7.88318 11.617 8.40239 12.1361 9.04272 12.1361C9.68305 12.1361 10.2023 11.617 10.2023 10.9765V2.31924H59.6118L68.798 11.7641V76.6809H62.2265C61.5862 76.6809 61.067 77.2 61.067 77.8405C61.067 78.4809 61.5862 79 62.2265 79H69.1844C70.2501 79 71.117 78.1332 71.117 77.0676V11.293C71.117 10.991 70.9992 10.7011 70.7886 10.4846Z" fill="url(#paint1_linear_808_25)"/>
<path d="M70.7885 10.4847L60.9326 0.351224C60.6035 0.0130057 60.1023 -0.0922248 59.6652 0.0853709C59.2281 0.262967 58.942 0.687746 58.942 1.15974V11.293C58.942 11.9335 59.4612 12.4526 60.1016 12.4526H69.9574C70.4236 12.4526 70.8443 12.1736 71.0255 11.7442C71.2068 11.3149 71.1134 10.8186 70.7885 10.4847ZM61.2611 10.1335V4.01469L67.2122 10.1335H61.2611Z" fill="black"/>
<path d="M70.7885 10.4847L60.9326 0.351224C60.6035 0.0130057 60.1023 -0.0922248 59.6652 0.0853709C59.2281 0.262967 58.942 0.687746 58.942 1.15974V11.293C58.942 11.9335 59.4612 12.4526 60.1016 12.4526H69.9574C70.4236 12.4526 70.8443 12.1736 71.0255 11.7442C71.2068 11.3149 71.1134 10.8186 70.7885 10.4847ZM61.2611 10.1335V4.01469L67.2122 10.1335H61.2611Z" fill="url(#paint2_linear_808_25)"/>
<path d="M44.8665 6.15625H16.9285C15.8628 6.15625 14.996 7.02324 14.996 8.08882V14.4972C14.996 15.563 15.863 16.4298 16.9285 16.4298H44.8665C45.932 16.4298 46.799 15.5628 46.799 14.4974V8.08866C46.799 7.02294 45.932 6.15625 44.8665 6.15625ZM44.4799 14.1106H17.3151V8.47518H44.4799V14.1106Z" fill="black"/>
<path d="M44.8665 6.15625H16.9285C15.8628 6.15625 14.996 7.02324 14.996 8.08882V14.4972C14.996 15.563 15.863 16.4298 16.9285 16.4298H44.8665C45.932 16.4298 46.799 15.5628 46.799 14.4974V8.08866C46.799 7.02294 45.932 6.15625 44.8665 6.15625ZM44.4799 14.1106H17.3151V8.47518H44.4799V14.1106Z" fill="url(#paint3_linear_808_25)"/>
<path d="M26.5771 22.4983C26.0675 22.1111 25.34 22.2099 24.9524 22.7198L19.8292 29.4608L18.2906 28.1144C17.8087 27.6925 17.0763 27.7414 16.6544 28.2234C16.2327 28.7055 16.2817 29.4379 16.7635 29.8596L19.2371 32.0239C19.4494 32.2096 19.7211 32.3108 20.0005 32.3108C20.0394 32.3108 20.0784 32.3088 20.1176 32.3051C20.4373 32.2725 20.7294 32.109 20.9238 31.853L26.7987 24.123C27.1861 23.6132 27.0869 22.8857 26.5771 22.4983Z" fill="black"/>
<path d="M26.5771 22.4983C26.0675 22.1111 25.34 22.2099 24.9524 22.7198L19.8292 29.4608L18.2906 28.1144C17.8087 27.6925 17.0763 27.7414 16.6544 28.2234C16.2327 28.7055 16.2817 29.4379 16.7635 29.8596L19.2371 32.0239C19.4494 32.2096 19.7211 32.3108 20.0005 32.3108C20.0394 32.3108 20.0784 32.3088 20.1176 32.3051C20.4373 32.2725 20.7294 32.109 20.9238 31.853L26.7987 24.123C27.1861 23.6132 27.0869 22.8857 26.5771 22.4983Z" fill="url(#paint4_linear_808_25)"/>
<path d="M61.4733 22.2615H32.269C31.6287 22.2615 31.1095 22.7805 31.1095 23.421C31.1095 24.0615 31.6287 24.5806 32.269 24.5806H61.4733C62.1136 24.5806 62.6328 24.0615 62.6328 23.421C62.6328 22.7805 62.1136 22.2615 61.4733 22.2615Z" fill="black"/>
<path d="M61.4733 22.2615H32.269C31.6287 22.2615 31.1095 22.7805 31.1095 23.421C31.1095 24.0615 31.6287 24.5806 32.269 24.5806H61.4733C62.1136 24.5806 62.6328 24.0615 62.6328 23.421C62.6328 22.7805 62.1136 22.2615 61.4733 22.2615Z" fill="url(#paint5_linear_808_25)"/>
<path d="M51.2298 26.1265H32.269C31.6287 26.1265 31.1095 26.6455 31.1095 27.286C31.1095 27.9265 31.6287 28.4455 32.269 28.4455H51.2298C51.8701 28.4455 52.3894 27.9265 52.3894 27.286C52.3894 26.6455 51.8701 26.1265 51.2298 26.1265Z" fill="black"/>
<path d="M51.2298 26.1265H32.269C31.6287 26.1265 31.1095 26.6455 31.1095 27.286C31.1095 27.9265 31.6287 28.4455 32.269 28.4455H51.2298C51.8701 28.4455 52.3894 27.9265 52.3894 27.286C52.3894 26.6455 51.8701 26.1265 51.2298 26.1265Z" fill="url(#paint6_linear_808_25)"/>
<path d="M55.5586 29.9916H32.269C31.6287 29.9916 31.1095 30.5106 31.1095 31.1511C31.1095 31.7916 31.6287 32.3107 32.269 32.3107H55.5586C56.1989 32.3107 56.7182 31.7916 56.7182 31.1511C56.7182 30.5106 56.1989 29.9916 55.5586 29.9916Z" fill="black"/>
<path d="M55.5586 29.9916H32.269C31.6287 29.9916 31.1095 30.5106 31.1095 31.1511C31.1095 31.7916 31.6287 32.3107 32.269 32.3107H55.5586C56.1989 32.3107 56.7182 31.7916 56.7182 31.1511C56.7182 30.5106 56.1989 29.9916 55.5586 29.9916Z" fill="url(#paint7_linear_808_25)"/>
<path d="M26.5771 38.2679C26.0675 37.8806 25.34 37.9795 24.9524 38.4894L19.8292 45.2303L18.2906 43.8839C17.8087 43.4623 17.0763 43.5112 16.6544 43.993C16.2327 44.4751 16.2817 45.2075 16.7635 45.6292L19.2371 47.7935C19.4494 47.9791 19.7211 48.0804 20.0005 48.0804C20.0394 48.0804 20.0784 48.0784 20.1176 48.0747C20.4373 48.0421 20.7294 47.8785 20.9238 47.6226L26.7987 39.8926C27.1861 39.3828 27.0869 38.6556 26.5771 38.2679Z" fill="black"/>
<path d="M26.5771 38.2679C26.0675 37.8806 25.34 37.9795 24.9524 38.4894L19.8292 45.2303L18.2906 43.8839C17.8087 43.4623 17.0763 43.5112 16.6544 43.993C16.2327 44.4751 16.2817 45.2075 16.7635 45.6292L19.2371 47.7935C19.4494 47.9791 19.7211 48.0804 20.0005 48.0804C20.0394 48.0804 20.0784 48.0784 20.1176 48.0747C20.4373 48.0421 20.7294 47.8785 20.9238 47.6226L26.7987 39.8926C27.1861 39.3828 27.0869 38.6556 26.5771 38.2679Z" fill="url(#paint8_linear_808_25)"/>
<path d="M61.4733 38.0312H32.269C31.6287 38.0312 31.1095 38.5503 31.1095 39.1908C31.1095 39.8313 31.6287 40.3503 32.269 40.3503H61.4733C62.1136 40.3503 62.6328 39.8313 62.6328 39.1908C62.6328 38.5503 62.1136 38.0312 61.4733 38.0312Z" fill="black"/>
<path d="M61.4733 38.0312H32.269C31.6287 38.0312 31.1095 38.5503 31.1095 39.1908C31.1095 39.8313 31.6287 40.3503 32.269 40.3503H61.4733C62.1136 40.3503 62.6328 39.8313 62.6328 39.1908C62.6328 38.5503 62.1136 38.0312 61.4733 38.0312Z" fill="url(#paint9_linear_808_25)"/>
<path d="M51.2298 41.8962H32.269C31.6287 41.8962 31.1095 42.4153 31.1095 43.0558C31.1095 43.6963 31.6287 44.2153 32.269 44.2153H51.2298C51.8701 44.2153 52.3894 43.6963 52.3894 43.0558C52.3894 42.4153 51.8701 41.8962 51.2298 41.8962Z" fill="black"/>
<path d="M51.2298 41.8962H32.269C31.6287 41.8962 31.1095 42.4153 31.1095 43.0558C31.1095 43.6963 31.6287 44.2153 32.269 44.2153H51.2298C51.8701 44.2153 52.3894 43.6963 52.3894 43.0558C52.3894 42.4153 51.8701 41.8962 51.2298 41.8962Z" fill="url(#paint10_linear_808_25)"/>
<path d="M55.5586 45.7612H32.269C31.6287 45.7612 31.1095 46.2803 31.1095 46.9208C31.1095 47.5613 31.6287 48.0803 32.269 48.0803H55.5586C56.1989 48.0803 56.7182 47.5613 56.7182 46.9208C56.7182 46.2803 56.1989 45.7612 55.5586 45.7612Z" fill="black"/>
<path d="M55.5586 45.7612H32.269C31.6287 45.7612 31.1095 46.2803 31.1095 46.9208C31.1095 47.5613 31.6287 48.0803 32.269 48.0803H55.5586C56.1989 48.0803 56.7182 47.5613 56.7182 46.9208C56.7182 46.2803 56.1989 45.7612 55.5586 45.7612Z" fill="url(#paint11_linear_808_25)"/>
<path d="M61.4733 53.801H32.269C31.6287 53.801 31.1095 54.3201 31.1095 54.9606C31.1095 55.6011 31.6287 56.1201 32.269 56.1201H61.4733C62.1136 56.1201 62.6327 55.6011 62.6328 54.9606C62.6328 54.3201 62.1136 53.801 61.4733 53.801Z" fill="black"/>
<path d="M61.4733 53.801H32.269C31.6287 53.801 31.1095 54.3201 31.1095 54.9606C31.1095 55.6011 31.6287 56.1201 32.269 56.1201H61.4733C62.1136 56.1201 62.6327 55.6011 62.6328 54.9606C62.6328 54.3201 62.1136 53.801 61.4733 53.801Z" fill="url(#paint12_linear_808_25)"/>
<path d="M51.2298 57.666H32.269C31.6287 57.666 31.1095 58.1851 31.1095 58.8256C31.1095 59.466 31.6287 59.9851 32.269 59.9851H51.2298C51.8701 59.9851 52.3894 59.466 52.3894 58.8256C52.3894 58.1851 51.8701 57.666 51.2298 57.666Z" fill="black"/>
<path d="M51.2298 57.666H32.269C31.6287 57.666 31.1095 58.1851 31.1095 58.8256C31.1095 59.466 31.6287 59.9851 32.269 59.9851H51.2298C51.8701 59.9851 52.3894 59.466 52.3894 58.8256C52.3894 58.1851 51.8701 57.666 51.2298 57.666Z" fill="url(#paint13_linear_808_25)"/>
<path d="M55.5586 61.531H32.269C31.6287 61.531 31.1095 62.0501 31.1095 62.6906C31.1095 63.331 31.6287 63.8501 32.269 63.8501H55.5586C56.1989 63.8501 56.7182 63.331 56.7182 62.6906C56.7182 62.0501 56.1989 61.531 55.5586 61.531Z" fill="black"/>
<path d="M55.5586 61.531H32.269C31.6287 61.531 31.1095 62.0501 31.1095 62.6906C31.1095 63.331 31.6287 63.8501 32.269 63.8501H55.5586C56.1989 63.8501 56.7182 63.331 56.7182 62.6906C56.7182 62.0501 56.1989 61.531 55.5586 61.531Z" fill="url(#paint14_linear_808_25)"/>
<path d="M24.4839 53.801H18.2999C17.2341 53.801 16.3673 54.668 16.3673 55.7336V61.9175C16.3673 62.9832 17.2343 63.8501 18.2999 63.8501H24.4839C25.5497 63.8501 26.4165 62.9832 26.4165 61.9177V55.7336C26.4165 54.6679 25.5495 53.801 24.4839 53.801ZM24.0976 61.5311H18.6865V56.1201H24.0976V61.5311Z" fill="black"/>
<path d="M24.4839 53.801H18.2999C17.2341 53.801 16.3673 54.668 16.3673 55.7336V61.9175C16.3673 62.9832 17.2343 63.8501 18.2999 63.8501H24.4839C25.5497 63.8501 26.4165 62.9832 26.4165 61.9177V55.7336C26.4165 54.6679 25.5495 53.801 24.4839 53.801ZM24.0976 61.5311H18.6865V56.1201H24.0976V61.5311Z" fill="url(#paint15_linear_808_25)"/>
</g>
<defs>
<linearGradient id="paint0_linear_808_25" x1="31.5764" y1="18.3197" x2="31.5764" y2="79" gradientUnits="userSpaceOnUse">
<stop stop-color="#FE4746"/>
<stop offset="1" stop-color="#D23614"/>
</linearGradient>
<linearGradient id="paint1_linear_808_25" x1="39.5001" y1="0" x2="39.5001" y2="79" gradientUnits="userSpaceOnUse">
<stop stop-color="#FE4746"/>
<stop offset="1" stop-color="#D23614"/>
</linearGradient>
<linearGradient id="paint2_linear_808_25" x1="65.0294" y1="0.00012207" x2="65.0294" y2="12.4526" gradientUnits="userSpaceOnUse">
<stop stop-color="#FE4746"/>
<stop offset="1" stop-color="#D23614"/>
</linearGradient>
<linearGradient id="paint3_linear_808_25" x1="30.8975" y1="6.15625" x2="30.8975" y2="16.4298" gradientUnits="userSpaceOnUse">
<stop stop-color="#FE4746"/>
<stop offset="1" stop-color="#D23614"/>
</linearGradient>
<linearGradient id="paint4_linear_808_25" x1="21.7013" y1="22.262" x2="21.7013" y2="32.3108" gradientUnits="userSpaceOnUse">
<stop stop-color="#FE4746"/>
<stop offset="1" stop-color="#D23614"/>
</linearGradient>
<linearGradient id="paint5_linear_808_25" x1="46.8712" y1="22.2615" x2="46.8712" y2="24.5806" gradientUnits="userSpaceOnUse">
<stop stop-color="#FE4746"/>
<stop offset="1" stop-color="#D23614"/>
</linearGradient>
<linearGradient id="paint6_linear_808_25" x1="41.7494" y1="26.1265" x2="41.7494" y2="28.4455" gradientUnits="userSpaceOnUse">
<stop stop-color="#FE4746"/>
<stop offset="1" stop-color="#D23614"/>
</linearGradient>
<linearGradient id="paint7_linear_808_25" x1="43.9138" y1="29.9916" x2="43.9138" y2="32.3107" gradientUnits="userSpaceOnUse">
<stop stop-color="#FE4746"/>
<stop offset="1" stop-color="#D23614"/>
</linearGradient>
<linearGradient id="paint8_linear_808_25" x1="21.7013" y1="38.0315" x2="21.7013" y2="48.0804" gradientUnits="userSpaceOnUse">
<stop stop-color="#FE4746"/>
<stop offset="1" stop-color="#D23614"/>
</linearGradient>
<linearGradient id="paint9_linear_808_25" x1="46.8712" y1="38.0312" x2="46.8712" y2="40.3503" gradientUnits="userSpaceOnUse">
<stop stop-color="#FE4746"/>
<stop offset="1" stop-color="#D23614"/>
</linearGradient>
<linearGradient id="paint10_linear_808_25" x1="41.7494" y1="41.8962" x2="41.7494" y2="44.2153" gradientUnits="userSpaceOnUse">
<stop stop-color="#FE4746"/>
<stop offset="1" stop-color="#D23614"/>
</linearGradient>
<linearGradient id="paint11_linear_808_25" x1="43.9138" y1="45.7612" x2="43.9138" y2="48.0803" gradientUnits="userSpaceOnUse">
<stop stop-color="#FE4746"/>
<stop offset="1" stop-color="#D23614"/>
</linearGradient>
<linearGradient id="paint12_linear_808_25" x1="46.8712" y1="53.801" x2="46.8712" y2="56.1201" gradientUnits="userSpaceOnUse">
<stop stop-color="#FE4746"/>
<stop offset="1" stop-color="#D23614"/>
</linearGradient>
<linearGradient id="paint13_linear_808_25" x1="41.7494" y1="57.666" x2="41.7494" y2="59.9851" gradientUnits="userSpaceOnUse">
<stop stop-color="#FE4746"/>
<stop offset="1" stop-color="#D23614"/>
</linearGradient>
<linearGradient id="paint14_linear_808_25" x1="43.9138" y1="61.531" x2="43.9138" y2="63.8501" gradientUnits="userSpaceOnUse">
<stop stop-color="#FE4746"/>
<stop offset="1" stop-color="#D23614"/>
</linearGradient>
<linearGradient id="paint15_linear_808_25" x1="21.3919" y1="53.801" x2="21.3919" y2="63.8501" gradientUnits="userSpaceOnUse">
<stop stop-color="#FE4746"/>
<stop offset="1" stop-color="#D23614"/>
</linearGradient>
<clipPath id="clip0_808_25">
<rect width="79" height="79" fill="white"/>
</clipPath>
</defs>
</svg>
